<svg width="95" height="78" viewBox="0 0 95 78" fill="none" xmlns="http://www.w3.org/2000/svg">
<g clip-path="url(#clip0)">
<path d="M77.3415 32.0035V16.7388H54.2001V32.0035C44.2398 35.646 37.2956 43.8464 37.2956 53.3792C37.2956 66.2961 50.044 76.7671 65.7704 76.7671C81.4969 76.7671 94.246 66.2961 94.246 53.3792C94.246 43.8464 87.301 35.646 77.3415 32.0035Z" fill="#C9FFF7"/>
<path d="M88.4833 53.3796C88.4833 63.6663 78.2952 72.0337 65.7697 72.0337C61.6494 72.0337 57.7828 71.1286 54.4487 69.5459C47.6449 66.3212 43.0582 60.2821 43.0582 53.3796C43.0582 48.2191 45.6607 43.39 50.0361 39.9299H81.5047C85.8808 43.39 88.4833 48.2191 88.4833 53.3796Z" fill="#F7D360"/>
<path d="M59.4023 32.004V27.7793C59.4023 25.4905 61.6609 23.6353 64.4469 23.6353H77.3415V19.1052L72.7526 15.6752L68.431 14.7288L54.2008 19.1047V32.004C44.2391 35.6465 37.2956 43.8457 37.2956 53.3796C37.2956 66.2407 49.9344 76.6769 65.5698 76.7652C57.0069 76.6028 50.0999 66.1948 50.0999 53.3796C50.0999 43.8457 53.922 35.6465 59.4023 32.004Z" fill="#72CEC0"/>
<path d="M54.4487 69.5459C47.6449 66.3212 43.0582 60.2821 43.0582 53.3796C43.0582 48.2191 45.6607 43.39 50.0361 39.9299H52.9503C51.1539 43.7338 50.0998 48.3721 50.0998 53.3796C50.0998 59.6506 51.7537 65.3448 54.4487 69.5459Z" fill="#E58E13"/>
<path d="M56.0031 66.5968L37.5107 40.2891V26.6776H19.9363V40.2891L1.4439 66.5968C-1.73334 71.1169 2.23786 76.767 8.59307 76.767H48.8547C55.2092 76.767 59.1811 71.1169 56.0031 66.5968Z" fill="#E6E6E6"/>
<path d="M37.5105 26.6777L32.1298 24.1946L21.8177 24.2829L19.9353 26.6777V40.2886L1.44364 66.5975C-1.73575 71.1176 2.23688 76.7671 8.59066 76.7671H19.582C16.6964 76.7671 14.8928 71.1176 16.3353 66.5975L24.7334 40.2886V33.3007C24.7334 31.8646 26.1508 30.701 27.8992 30.701H37.5105V26.6777Z" fill="#CCCCCC"/>
<path d="M43.8824 23.6011C43.8824 25.3003 42.2056 26.6775 40.1369 26.6775H17.3093C16.276 26.6775 15.3388 26.3338 14.6609 25.7764C13.983 25.2197 13.5638 24.4498 13.5638 23.6011C13.5638 21.902 15.2406 20.5248 17.3093 20.5248H40.1369C41.1702 20.5248 42.1075 20.8685 42.7853 21.4253C43.4632 21.9826 43.8824 22.7525 43.8824 23.6011Z" fill="#CCCCCC"/>
<path d="M43.8823 23.6011C43.8823 25.3003 42.2056 26.6775 40.1368 26.6775H26.3931C25.3577 26.6775 24.4226 26.3338 23.744 25.7764C23.0661 25.2197 22.6476 24.4498 22.6476 23.6011C22.6476 21.902 24.3244 20.5248 26.3931 20.5248H40.1368C41.1701 20.5248 42.1074 20.8685 42.7853 21.4253C43.4631 21.9826 43.8823 22.7525 43.8823 23.6011Z" fill="#E6E6E6"/>
<path d="M83.7927 16.0282C83.7927 17.7273 82.116 19.1045 80.0473 19.1045H51.8096C50.7742 19.1045 49.8383 18.7608 49.1605 18.204C48.4826 17.6467 48.0634 16.8768 48.0634 16.0282C48.0634 14.329 49.7409 12.9518 51.8096 12.9518H80.0473C81.0806 12.9518 82.0178 13.2955 82.6957 13.8529C83.3743 14.4096 83.7927 15.1795 83.7927 16.0282Z" fill="#72CEC0"/>
<path d="M83.7927 16.0282C83.7927 17.7273 82.1159 19.1045 80.0472 19.1045H60.5624C59.5291 19.1045 58.5918 18.7608 57.9132 18.204C57.2354 17.6467 56.8169 16.8768 56.8169 16.0282C56.8169 14.329 58.4937 12.9518 60.5624 12.9518H80.0472C81.0805 12.9518 82.0178 13.2955 82.6956 13.8529C83.3742 14.4096 83.7927 15.1795 83.7927 16.0282Z" fill="#C9FFF7"/>
<path d="M51.0119 71.0103C50.7432 71.3935 50.1055 72.0338 48.8551 72.0338H8.59274C7.34019 72.0338 6.70244 71.3935 6.43373 71.0103C6.16502 70.6283 5.80746 69.8538 6.43373 68.9639L20.0234 49.6311H37.4244L51.0119 68.9639C51.6382 69.8538 51.2807 70.6283 51.0119 71.0103Z" fill="#FC5F61"/>
<path d="M16.3352 66.5975C15.7691 68.3725 15.7032 70.3206 16.007 72.0339H8.59274C7.34019 72.0339 6.70244 71.3936 6.43373 71.0104C6.16502 70.6285 5.80746 69.8539 6.43373 68.964L20.0234 49.6312H21.7503L16.3352 66.5975Z" fill="#E83842"/>
<path d="M31.8211 63.1196C30.5126 63.1196 29.8899 61.7383 30.8867 61.0373C31.8777 60.3405 33.4333 61.0514 33.2463 62.1108C33.1453 62.6841 32.5247 63.1196 31.8211 63.1196Z" fill="#E83842"/>
<path d="M25.4674 14.6099C24.2098 14.6099 23.5635 13.3186 24.4492 12.5888C24.9278 12.195 25.7039 12.1338 26.2664 12.4422C26.7594 12.7118 27.0051 13.2191 26.8697 13.6929C26.7192 14.222 26.1302 14.6099 25.4674 14.6099Z" fill="#E83842"/>
<path d="M31.2005 10.1132C29.8971 10.1132 29.26 8.72662 30.2647 8.02977C30.7426 7.69783 31.4398 7.65546 31.9708 7.93031C32.481 8.19457 32.7411 8.71367 32.6035 9.19687C32.453 9.7248 31.864 10.1132 31.2005 10.1132Z" fill="#E83842"/>
<path d="M28.0777 3.25078C27.4485 3.25078 26.8825 2.90353 26.6983 2.41091C26.5156 1.91947 26.7563 1.368 27.2766 1.08314C28.3457 0.496937 29.7924 1.32562 29.4735 2.355C29.3123 2.8741 28.7312 3.25078 28.0777 3.25078Z" fill="#E83842"/>
<path d="M78.42 47.2663C77.1395 47.2663 76.5011 45.9232 77.4455 45.2111C78.3505 44.5289 79.8611 45.0734 79.8611 46.0827C79.8611 46.726 79.2047 47.2663 78.42 47.2663Z" fill="white"/>
<path d="M79.4231 55.1576C78.1684 55.1576 77.5105 53.8657 78.4048 53.1382C78.852 52.7745 79.547 52.6903 80.1024 52.9322C80.6348 53.1647 80.9343 53.6597 80.8483 54.1488C80.7466 54.7226 80.126 55.1576 79.4231 55.1576Z" fill="white"/>
<path d="M60.6336 64.0665C60.0173 64.0665 59.4598 63.734 59.2664 63.2543C59.0614 62.7481 59.3101 62.1737 59.8568 61.8865C60.9417 61.3162 62.3662 62.1737 62.0215 63.1972C61.8517 63.7034 61.2742 64.0665 60.6336 64.0665Z" fill="white"/>
<path d="M54.0066 54.127C52.7046 54.127 52.0726 52.7481 53.0651 52.0494C53.5416 51.7134 54.2395 51.6716 54.7719 51.9429C55.2771 52.2013 55.5394 52.7092 55.4161 53.1877C55.2771 53.728 54.6802 54.127 54.0066 54.127Z" fill="white"/>
<path d="M71.5802 51.2873C70.2925 51.2873 69.6547 49.9366 70.6135 49.2286C71.0915 48.8754 71.8066 48.826 72.3512 49.1056C72.8492 49.3622 73.1079 49.8625 72.9939 50.3362C72.8621 50.8824 72.2573 51.2873 71.5802 51.2873Z" fill="white"/>
<path d="M21.7394 65.5702C21.1611 65.5702 20.6302 65.2771 20.408 64.8398C20.1644 64.3583 20.3464 63.7798 20.8466 63.4579C21.8734 62.7981 23.4155 63.5585 23.151 64.6185C23.0149 65.1647 22.4202 65.5702 21.7394 65.5702Z" fill="#E83842"/>
<path d="M25.4844 57.9139C24.8818 57.9139 24.3315 57.5955 24.128 57.1294C23.9116 56.6338 24.133 56.0606 24.6604 55.7604C25.6858 55.1771 27.1239 55.917 26.9025 56.9334C26.7807 57.4925 26.1781 57.9139 25.4844 57.9139Z" fill="#E83842"/>
</g>
<defs>
<clipPath id="clip0">
<rect width="93.9215" height="77.1429" fill="white" transform="translate(0.324585 0.285645)"/>
</clipPath>
</defs>
</svg>
