<svg width="95" height="78" viewBox="0 0 95 78" fill="none" xmlns="http://www.w3.org/2000/svg">
<g clip-path="url(#clip0)">
<path d="M81.8697 40.327L77.2538 50.8128C72.8607 60.2012 56.6023 59.9946 52.5649 50.4991L48.5038 40.327H81.8697Z" fill="#E2F1FE"/>
<path d="M77.7371 40.327L73.121 50.8126C71.2509 54.8091 67.2306 57.0657 62.9182 57.6085C68.5966 58.324 74.7906 56.0771 77.2541 50.8126L81.8702 40.327H77.7371Z" fill="#C4E3FF"/>
<path d="M13.0054 36.6607L17.7035 26.2179C22.1157 16.8478 38.3495 17.0683 42.3824 26.5529L46.4822 36.6607H13.0054Z" fill="#E2F1FE"/>
<path d="M42.3832 26.5529C40.0649 21.1003 33.7143 18.7106 27.8954 19.4436C32.3444 20.0039 36.4768 22.3824 38.2501 26.5529L42.3499 36.6608H46.483L42.3832 26.5529Z" fill="#C4E3FF"/>
<path d="M93.7919 39.245L86.9 43.3784C86.2291 43.7804 85.2861 43.3862 85.2861 42.7048V41.3097C85.2861 41.1098 85.0888 40.9477 84.8454 40.9477H13.6548C13.2969 40.9477 13.0066 41.1861 13.0066 41.4801V65.9903C13.0066 66.4677 12.5353 66.8548 11.9541 66.8548H8.2728C7.69151 66.8548 7.22021 66.4677 7.22021 65.9903V41.4816C7.22021 41.1867 6.92918 40.9477 6.57013 40.9477H1.34117C0.75988 40.9477 0.288574 40.5606 0.288574 40.0832V37.0594C0.288574 36.5819 0.75988 36.1948 1.34117 36.1948H6.57013C6.92918 36.1948 7.22021 35.9558 7.22021 35.6609V11.1523C7.22021 10.6748 7.69151 10.2877 8.2728 10.2877H11.9541C12.5353 10.2877 13.0066 10.6748 13.0066 11.1523V35.6609C13.0066 35.9558 13.2977 36.1948 13.6567 36.1948H84.8454C85.0888 36.1948 85.2861 36.0328 85.2861 35.8329V34.4378C85.2861 33.7564 86.2291 33.3621 86.9 33.7642L93.7919 37.8976C94.3494 38.2314 94.3494 38.9113 93.7919 39.245Z" fill="#6C7FD8"/>
<path d="M93.7927 37.8978L86.9007 33.7644C86.2299 33.3624 85.2869 33.7566 85.2869 34.438V35.6785C85.2869 35.2177 85.9237 34.9519 86.3769 35.2237L90.8352 37.8978C91.3908 38.2315 91.3908 38.9113 90.8352 39.2451L86.3769 41.9191C85.9239 42.1909 85.2869 41.925 85.2869 41.4643V42.7048C85.2869 43.3862 86.2299 43.7805 86.9007 43.3785L93.7927 39.2451C94.3502 38.9113 94.3502 38.2315 93.7927 37.8978Z" fill="#4F66D0"/>
<path d="M13.6544 36.1962H11.3357C10.6252 36.1962 10.0469 35.7228 10.0469 35.1376V11.4563C10.0469 10.8121 9.41194 10.2891 8.62769 10.2891H11.9537C12.535 10.2891 13.0063 10.6762 13.0063 11.1536V35.6622C13.0063 35.9571 13.2954 36.1962 13.6544 36.1962Z" fill="#4F66D0"/>
<path d="M13.6544 40.9476C13.2954 40.9476 13.0063 41.1867 13.0063 41.4816V65.9902C13.0063 66.4676 12.535 66.8547 11.9537 66.8547H8.62769C9.41194 66.8547 10.0469 66.3317 10.0469 65.6875V42.0062C10.0469 41.421 10.6252 40.9476 11.3357 40.9476H13.6544Z" fill="#4F66D0"/>
<path d="M29.7176 26.1583C28.9347 26.1583 28.3003 25.6371 28.3003 24.9942V24.8444C28.3003 24.2015 28.9347 23.6803 29.7176 23.6803C30.5005 23.6803 31.1349 24.2015 31.1349 24.8444V24.9942C31.1349 25.6371 30.5004 26.1583 29.7176 26.1583Z" fill="#8AC9FE"/>
<path d="M31.1349 30.5063V30.6561C31.1349 31.299 30.5005 31.8202 29.7176 31.8202C28.9347 31.8202 28.3003 31.299 28.3003 30.6561V30.5063C28.3003 29.8634 28.9347 29.3422 29.7176 29.3422C30.5005 29.3422 31.1349 29.8634 31.1349 30.5063Z" fill="#8AC9FE"/>
<path d="M64.6752 53.2468C63.8923 53.2468 63.2579 52.7256 63.2579 52.0827V51.9329C63.2579 51.29 63.8923 50.7688 64.6752 50.7688C65.4582 50.7688 66.0925 51.29 66.0925 51.9329V52.0827C66.0925 52.7256 65.458 53.2468 64.6752 53.2468Z" fill="#8AC9FE"/>
<path d="M64.6752 47.6374C63.8923 47.6374 63.2579 47.1162 63.2579 46.4733V46.3235C63.2579 45.6806 63.8923 45.1594 64.6752 45.1594C65.4582 45.1594 66.0925 45.6806 66.0925 46.3235V46.4733C66.0925 47.1162 65.458 47.6374 64.6752 47.6374Z" fill="#8AC9FE"/>
<path d="M43.7216 26.169C42.6688 23.6931 40.7749 21.6359 38.2449 20.2194C35.8978 18.9055 33.1195 18.1901 30.2098 18.1507C27.3005 18.1123 24.4944 18.7507 22.0958 20.0002C19.5098 21.3474 17.5343 23.3521 16.3826 25.7979L11.4426 36.195H14.526L19.0264 26.6377C21.2034 22.0148 26.2024 20.4291 30.163 20.4786C34.1194 20.5323 39.0558 22.2571 41.0453 26.9365L46.831 40.5437H49.8336L43.7216 26.169Z" fill="#0ED290"/>
<path d="M80.351 40.948L75.9302 50.3952C73.7627 55.0273 68.7533 56.6248 64.7973 56.5734C60.8364 56.5231 55.8945 54.8001 53.9027 50.1153L48.9749 38.5261H45.9723L51.2264 50.883C52.2801 53.3614 54.1763 55.4201 56.7101 56.8367C59.06 58.1504 61.8413 58.8644 64.7535 58.9013C64.833 58.9024 64.9122 58.9029 64.9914 58.9029C67.8185 58.9029 70.5382 58.2612 72.8709 57.042C75.4569 55.6905 77.4296 53.681 78.5763 51.2306L83.3271 40.9481H80.351V40.948Z" fill="#FD6930"/>
</g>
<defs>
<clipPath id="clip0">
<rect width="93.9215" height="77.1429" fill="white" transform="translate(0.288574)"/>
</clipPath>
</defs>
</svg>
