<svg width="95" height="78" viewBox="0 0 95 78" fill="none" xmlns="http://www.w3.org/2000/svg">
<g clip-path="url(#clip0)">
<path d="M59.4689 25.6597H34.7151C33.9322 25.6597 33.2975 25.1384 33.2975 24.4953C33.2975 23.8523 33.932 23.3309 34.7151 23.3309H59.4691C60.2521 23.3309 60.8868 23.8523 60.8868 24.4953C60.8868 25.1384 60.2521 25.6597 59.4689 25.6597Z" fill="#596C76"/>
<path d="M59.4689 30.7538H34.7151C33.9322 30.7538 33.2975 30.2325 33.2975 29.5894C33.2975 28.9464 33.932 28.425 34.7151 28.425H59.4691C60.2521 28.425 60.8868 28.9464 60.8868 29.5894C60.8866 30.2325 60.2521 30.7538 59.4689 30.7538Z" fill="#596C76"/>
<path d="M59.4464 49.1278H34.7379C33.955 49.1278 33.3203 48.6065 33.3203 47.9634C33.3203 47.3204 33.9548 46.7991 34.7379 46.7991H59.4464C60.2293 46.7991 60.864 47.3204 60.864 47.9634C60.864 48.6065 60.2293 49.1278 59.4464 49.1278Z" fill="#596C76"/>
<path d="M59.4464 54.2221H34.7379C33.955 54.2221 33.3203 53.7007 33.3203 53.0577C33.3203 52.4146 33.9548 51.8933 34.7379 51.8933H59.4464C60.2293 51.8933 60.864 52.4146 60.864 53.0577C60.864 53.7007 60.2293 54.2221 59.4464 54.2221Z" fill="#596C76"/>
<path d="M30.7632 77.285C28.7342 77.285 27.0893 75.8483 27.0893 74.0761C27.0893 70.3501 29.341 67.1063 33.7819 64.4348C37.1644 62.4 41.4978 60.8358 45.6887 59.3232C52.6 56.8285 59.7468 54.2489 59.7468 50.501C59.7468 46.7531 52.6002 44.1736 45.6889 41.679C41.498 40.1664 37.1646 38.6023 33.7821 36.5674C29.3412 33.8959 27.0895 30.6521 27.0895 26.926C27.0895 23.2 29.3412 19.9564 33.7821 17.2848C37.1646 15.2501 41.4982 13.6861 45.6891 12.1735C52.6004 9.67889 59.7468 7.09958 59.7468 3.35212C59.7468 1.57995 61.3918 0.143311 63.4208 0.143311C65.4498 0.143311 67.0947 1.57995 67.0947 3.35212C67.0947 7.07803 64.843 10.3216 60.4021 12.9932C57.0196 15.028 52.6862 16.5919 48.4953 18.1045C41.584 20.5991 34.4374 23.1784 34.4374 26.926C34.4374 30.674 41.584 33.2534 48.4953 35.7481C52.6862 37.2606 57.0196 38.8247 60.4021 40.8597C64.843 43.5312 67.0947 46.775 67.0947 50.501C67.0947 54.2271 64.843 57.4708 60.4021 60.1425C57.0196 62.1773 52.686 63.7416 48.4952 65.2541C41.5839 67.7488 34.4372 70.3282 34.4372 74.0761C34.4372 75.8483 32.7923 77.285 30.7632 77.285Z" fill="#6BD9E7"/>
<path d="M67.0953 50.5007C67.0953 54.2266 64.8423 57.4713 60.4023 60.1431C57.0189 62.1768 52.6868 63.7417 48.4944 65.2538C41.584 67.7486 34.4374 70.3288 34.4374 74.0766C34.4374 75.848 32.793 77.2855 30.7629 77.2855C30.0711 77.2855 29.4247 77.1195 28.8727 76.8291C29.9425 76.2672 30.657 75.2441 30.657 74.0766C30.657 70.3288 36.7773 66.3793 43.6895 63.8845C47.8801 62.3724 52.2142 60.809 55.5956 58.7738C60.0374 56.102 63.3149 54.2266 63.3149 50.5007C63.3149 46.7748 61.2131 45.0422 56.7712 42.3704C53.3897 40.3352 47.2034 38.2345 43.011 36.7224C36.1006 34.2276 30.657 30.6739 30.657 26.9262C30.657 23.1784 37.5542 19.0038 44.4646 16.5105C48.6569 14.9969 53.6129 14.3837 56.9963 12.3499C61.4363 9.6781 63.3151 7.07769 63.3151 3.35178C63.3151 2.1844 62.5988 1.1612 61.5308 0.599201C62.0826 0.309011 62.729 0.142822 63.4208 0.142822C65.4489 0.142822 67.0953 1.58036 67.0953 3.35178C67.0953 7.07769 64.8423 10.3224 60.4023 12.9927C57.0189 15.0279 52.6868 16.5913 48.4944 18.1051C41.584 20.5998 34.4374 23.1786 34.4374 26.9263C34.4374 30.6741 41.584 33.2543 48.4944 35.7491C52.6868 37.2612 57.0191 38.8245 60.4023 40.8598C64.8423 43.5316 67.0953 46.7748 67.0953 50.5007Z" fill="#2ED1E2"/>
<path d="M63.4208 77.285C65.4498 77.285 67.0947 75.8483 67.0947 74.0761C67.0947 70.3501 64.843 67.1063 60.4021 64.4348C57.0196 62.4 52.6862 60.8358 48.4953 59.3232C41.5839 56.8285 34.4372 54.2489 34.4372 50.501C34.4372 46.7531 41.5839 44.1736 48.4952 41.679C52.686 40.1664 57.0195 38.6023 60.4019 36.5674C64.8428 33.8959 67.0946 30.6521 67.0946 26.926C67.0946 23.2 64.8428 19.9564 60.4019 17.2848C57.0195 15.2501 52.6859 13.6861 48.495 12.1735C41.5837 9.67889 34.4372 7.09958 34.4372 3.35212C34.4372 1.57995 32.7923 0.143311 30.7632 0.143311C28.7342 0.143311 27.0893 1.57995 27.0893 3.35212C27.0893 7.07803 29.341 10.3216 33.7819 12.9932C37.1644 15.028 41.4978 16.5919 45.6887 18.1045C52.6 20.5991 59.7467 23.1784 59.7467 26.926C59.7467 30.674 52.6 33.2534 45.6887 35.7481C41.4978 37.2606 37.1644 38.8247 33.7819 40.8597C29.341 43.5312 27.0893 46.775 27.0893 50.501C27.0893 54.2271 29.341 57.4708 33.7819 60.1425C37.1644 62.1773 41.498 63.7416 45.6889 65.2541C52.6002 67.7488 59.7468 70.3282 59.7468 74.0761C59.7468 75.8483 61.3918 77.285 63.4208 77.285Z" fill="#EE6161"/>
<path d="M67.0953 74.0767C67.0953 75.8481 65.4489 77.2857 63.4208 77.2857C62.729 77.2857 62.0826 77.1196 61.5306 76.8293C62.5986 76.2673 63.3149 75.2443 63.3149 74.0767C63.3149 70.3508 62.1978 69.2158 57.756 66.5456C54.3744 64.5104 50.0404 62.9454 45.8499 61.4333C41.7376 59.9493 37.4032 58.045 33.9413 55.7322C32.0669 54.48 30.6568 52.5364 30.6568 50.5004C30.6568 49.0986 31.5572 47.8358 32.6288 46.7951C36.0467 43.4762 41.0887 41.3846 45.8756 39.5978C49.6473 38.1899 53.5088 36.8613 56.8714 34.839C61.3114 32.1687 63.3149 30.6519 63.3149 26.926C63.3149 23.2001 60.5516 21.5296 56.1098 18.8593C52.7282 16.8241 48.3942 15.2591 44.2037 13.7469C37.2933 11.2521 30.657 7.09924 30.657 3.35148C30.657 2.18409 29.9425 1.1609 28.8727 0.598899C29.4247 0.309011 30.0709 0.142822 30.7629 0.142822C32.7928 0.142822 34.4374 1.58036 34.4374 3.35178C34.4374 7.09954 41.584 9.67976 48.4944 12.173C52.6868 13.6867 57.0191 15.25 60.4023 17.2854C64.8423 19.9572 67.0953 23.2004 67.0953 26.9263C67.0953 30.6522 64.8423 33.8954 60.4023 36.5672C57.0189 38.6025 52.6868 40.1658 48.4944 41.6796C41.584 44.1744 34.4374 46.7531 34.4374 50.5008C34.4374 54.2486 41.584 56.8288 48.4944 59.3236C52.6868 60.8357 57.0191 62.4006 60.4023 64.4343C64.8423 67.1061 67.0953 70.3508 67.0953 74.0767Z" fill="#E94444"/>
</g>
<defs>
<clipPath id="clip0">
<rect width="93.9215" height="77.1429" fill="white" transform="translate(0.131653 0.142822)"/>
</clipPath>
</defs>
</svg>
