<svg width="94" height="78" viewBox="0 0 94 78" fill="none" xmlns="http://www.w3.org/2000/svg">
<g clip-path="url(#clip0)">
<path d="M93.4499 9.35266C93.7181 9.35266 93.9354 9.53119 93.9354 9.75144V68.0592C93.9354 68.2795 93.7181 68.4579 93.4499 68.4579H0.49943C0.231274 68.4579 0.013916 68.2793 0.013916 68.0592V9.75144C0.013916 9.53119 0.231274 9.35266 0.49943 9.35266H93.4499Z" fill="#A6E7F0"/>
<path d="M3.82251 9.35266V61.6096C3.82251 63.8863 6.07672 65.7384 8.84742 65.7384H41.0583C43.1537 65.7384 45.173 65.2513 46.9095 64.3455C48.6482 65.2495 50.6698 65.7384 52.7514 65.7384H85.1022C87.8731 65.7384 90.1271 63.8863 90.1271 61.6096V9.35266H3.82251Z" fill="#6BD9E7"/>
<path d="M46.6029 7.51607C44.9052 6.12167 42.6033 5.33838 40.2012 5.33838H8.84767C8.1584 5.33838 7.59943 5.79749 7.59943 6.36363V61.6095C7.59943 62.1756 8.1584 62.6363 8.84767 62.6363H41.0585C42.8846 62.6363 44.6409 62.0624 45.9684 61.034L46.8711 60.336L51.3642 52.9756V10.9967L46.6029 7.51607Z" fill="#EFEDEF"/>
<path d="M86.3505 6.36363V61.6095C86.3505 62.1756 85.7915 62.6363 85.1022 62.6363H52.7516C51.0105 62.6363 49.3279 62.1136 48.0211 61.1674L46.8711 60.336L46.975 7.82163L47.347 7.51607C48.8747 6.25971 50.8953 5.50124 53.0368 5.3632L85.1022 5.33838C85.7915 5.33838 86.3505 5.79749 86.3505 6.36363Z" fill="#F9F7F8"/>
<path d="M67.0493 72.8991L63.2133 71.4149L59.3774 72.8991C59.0627 73.0209 58.7009 72.8323 58.7009 72.5467V5.17714C58.7009 4.64094 59.2303 4.20618 59.8831 4.20618H66.5434C67.1962 4.20618 67.7255 4.64094 67.7255 5.17714V72.5467C67.7257 72.8323 67.3639 73.0209 67.0493 72.8991Z" fill="#FD8087"/>
<path d="M40.2992 18.0579H14.5726C13.7903 18.0579 13.1563 17.5372 13.1563 16.8946C13.1563 16.252 13.7903 15.7313 14.5726 15.7313H40.2992C41.0816 15.7313 41.7155 16.252 41.7155 16.8946C41.7155 17.5372 41.0816 18.0579 40.2992 18.0579Z" fill="#E5E1E5"/>
<path d="M40.299 25.0471H24.5662C23.7838 25.0471 23.1498 24.5264 23.1498 23.8838C23.1498 23.2412 23.7838 22.7205 24.5662 22.7205H40.299C41.0814 22.7205 41.7153 23.2412 41.7153 23.8838C41.7153 24.5264 41.0814 25.0471 40.299 25.0471Z" fill="#E5E1E5"/>
<path d="M40.2992 32.0366H14.5726C13.7903 32.0366 13.1563 31.5159 13.1563 30.8733C13.1563 30.2307 13.7903 29.71 14.5726 29.71H40.2992C41.0816 29.71 41.7155 30.2307 41.7155 30.8733C41.7155 31.5159 41.0816 32.0366 40.2992 32.0366Z" fill="#E5E1E5"/>
<path d="M40.2992 39.0259H14.5726C13.7903 39.0259 13.1563 38.5052 13.1563 37.8626C13.1563 37.22 13.7903 36.6993 14.5726 36.6993H40.2992C41.0816 36.6993 41.7155 37.22 41.7155 37.8626C41.7155 38.5052 41.0816 39.0259 40.2992 39.0259Z" fill="#E5E1E5"/>
<path d="M31.5919 46.0156H14.5726C13.7903 46.0156 13.1563 45.4949 13.1563 44.8523C13.1563 44.2097 13.7903 43.689 14.5726 43.689H31.5919C32.3742 43.689 33.0082 44.2097 33.0082 44.8523C33.0082 45.4949 32.3742 46.0156 31.5919 46.0156Z" fill="#E5E1E5"/>
<path d="M40.2992 53.0048H14.5726C13.7903 53.0048 13.1563 52.4841 13.1563 51.8415C13.1563 51.1989 13.7903 50.6782 14.5726 50.6782H40.2992C41.0816 50.6782 41.7155 51.1989 41.7155 51.8415C41.7155 52.4841 41.0816 53.0048 40.2992 53.0048Z" fill="#E5E1E5"/>
<path d="M18.4318 25.0471H14.5726C13.7903 25.0471 13.1563 24.5264 13.1563 23.8838C13.1563 23.2412 13.7903 22.7205 14.5726 22.7205H18.4318C19.2142 22.7205 19.8481 23.2412 19.8481 23.8838C19.8481 24.5264 19.214 25.0471 18.4318 25.0471Z" fill="#E5E1E5"/>
<path d="M40.2983 46.0156H37.3297C36.5473 46.0156 35.9134 45.4949 35.9134 44.8523C35.9134 44.2097 36.5473 43.689 37.3297 43.689H40.2983C41.0807 43.689 41.7146 44.2097 41.7146 44.8523C41.7146 45.4949 41.0807 46.0156 40.2983 46.0156Z" fill="#E5E1E5"/>
<path d="M79.5663 18.0579H73.8648C73.0824 18.0579 72.4485 17.5372 72.4485 16.8946C72.4485 16.252 73.0824 15.7313 73.8648 15.7313H79.5663C80.3487 15.7313 80.9826 16.252 80.9826 16.8946C80.9826 17.5372 80.3487 18.0579 79.5663 18.0579Z" fill="#EFEDEF"/>
<path d="M79.5663 25.0471H73.8648C73.0824 25.0471 72.4485 24.5264 72.4485 23.8838C72.4485 23.2412 73.0824 22.7205 73.8648 22.7205H79.5663C80.3487 22.7205 80.9826 23.2412 80.9826 23.8838C80.9826 24.5264 80.3487 25.0471 79.5663 25.0471Z" fill="#EFEDEF"/>
<path d="M79.5663 32.0366H73.8648C73.0824 32.0366 72.4485 31.5159 72.4485 30.8733C72.4485 30.2307 73.0824 29.71 73.8648 29.71H79.5663C80.3487 29.71 80.9826 30.2307 80.9826 30.8733C80.9826 31.5159 80.3487 32.0366 79.5663 32.0366Z" fill="#EFEDEF"/>
<path d="M79.5663 39.0259H73.8648C73.0824 39.0259 72.4485 38.5052 72.4485 37.8626C72.4485 37.22 73.0824 36.6993 73.8648 36.6993H79.5663C80.3487 36.6993 80.9826 37.22 80.9826 37.8626C80.9826 38.5052 80.3487 39.0259 79.5663 39.0259Z" fill="#EFEDEF"/>
<path d="M79.5663 53.0047H73.8648C73.0824 53.0047 72.4485 52.484 72.4485 51.8414C72.4485 51.1988 73.0824 50.6781 73.8648 50.6781H79.5663C80.3487 50.6781 80.9826 51.1988 80.9826 51.8414C80.9826 52.484 80.3487 53.0047 79.5663 53.0047Z" fill="#EFEDEF"/>
<path d="M79.5663 46.0153H73.8648C73.0824 46.0153 72.4485 45.4946 72.4485 44.852C72.4485 44.2094 73.0824 43.6887 73.8648 43.6887H79.5663C80.3487 43.6887 80.9826 44.2094 80.9826 44.852C80.9826 45.4946 80.3487 46.0153 79.5663 46.0153Z" fill="#EFEDEF"/>
</g>
<defs>
<clipPath id="clip0">
<rect width="93.9215" height="77.1429" fill="white" transform="translate(0.013916)"/>
</clipPath>
</defs>
</svg>
