<svg width="26" height="22" viewBox="0 0 26 22" fill="none" xmlns="http://www.w3.org/2000/svg">
<path fill-rule="evenodd" clip-rule="evenodd" d="M1.11999 0.199951C0.722349 0.199951 0.399994 0.522307 0.399994 0.919952V3.07995C0.399994 3.4776 0.722347 3.79995 1.11999 3.79995H24.88C25.2776 3.79995 25.6 3.4776 25.6 3.07995V0.919951C25.6 0.522306 25.2776 0.199951 24.88 0.199951H1.11999ZM0.4 9.92C0.4 9.52236 0.722355 9.2 1.12 9.2H24.88C25.2776 9.2 25.6 9.52236 25.6 9.92V12.08C25.6 12.4776 25.2776 12.8 24.88 12.8H1.12C0.722354 12.8 0.4 12.4776 0.4 12.08V9.92ZM0.4 18.92C0.4 18.5224 0.722355 18.2 1.12 18.2H24.88C25.2776 18.2 25.6 18.5224 25.6 18.92V21.08C25.6 21.4776 25.2776 21.8 24.88 21.8H1.12C0.722354 21.8 0.4 21.4776 0.4 21.08V18.92Z" fill="#090909" fill-opacity="0.7"/>
</svg>
