<svg width="95" height="78" viewBox="0 0 95 78" fill="none" xmlns="http://www.w3.org/2000/svg">
<g clip-path="url(#clip0)">
<path d="M47.5772 3.46034V75.3972C47.5772 76.8344 46.1584 77.9997 44.4085 77.9997H3.78593C2.03609 77.9997 0.616577 76.8344 0.616577 75.3972V42.0316C0.616577 41.9386 0.62231 41.8468 0.635924 41.7568C0.802167 40.4484 2.1493 39.4285 3.78593 39.4285C2.03609 39.4285 0.616577 38.2631 0.616577 36.8259V3.46034C0.616577 2.0231 2.03609 0.857178 3.78593 0.857178H44.4085C46.1584 0.857178 47.5772 2.0231 47.5772 3.46034Z" fill="#BE7560"/>
<path d="M47.5775 72.0583V75.3972C47.5775 76.8344 46.1587 77.9998 44.4089 77.9998H3.78626C2.03642 77.9998 0.616913 76.8344 0.616913 75.3972V72.0583C0.616913 73.4956 2.03642 74.6615 3.78626 74.6615H44.4089C46.1587 74.6615 47.5775 73.4956 47.5775 72.0583Z" fill="#A86552"/>
<path d="M47.5772 3.46034V33.4853C47.5772 34.9243 46.1584 36.0896 44.4085 36.0896H3.78593C2.46674 36.0896 1.33672 35.4269 0.858775 34.4846C0.703998 34.1774 0.616577 33.839 0.616577 33.4853V3.46034C0.616577 2.0231 2.03609 0.857178 3.78593 0.857178H44.4085C46.1584 0.857178 47.5772 2.0231 47.5772 3.46034Z" fill="#CF8671"/>
<path d="M94.5367 3.96178V74.8957C94.5367 76.6107 92.8456 77.9997 90.7576 77.9997H51.356C49.2679 77.9997 47.5761 76.6107 47.5761 74.8957V3.96178C47.5761 2.24675 49.2679 0.857178 51.356 0.857178H90.7576C92.8456 0.857178 94.5367 2.24675 94.5367 3.96178Z" fill="#A86552"/>
<path d="M94.5369 3.96178V74.8957C94.5369 76.6107 92.8458 77.9997 90.7577 77.9997H86.2219C88.3107 77.9997 90.0018 76.6107 90.0018 74.8957V3.96178C90.0018 2.24675 88.3107 0.857178 86.2219 0.857178H90.7577C92.8458 0.857178 94.5369 2.24675 94.5369 3.96178Z" fill="#BE7560"/>
<path d="M94.5368 41.6715V44.0322C93.0005 44.3288 91.4871 44.6843 90.0016 45.0939C89.48 45.2387 88.9619 45.3888 88.4481 45.5459C88.3987 45.5648 88.3478 45.5818 88.2948 45.5942C81.0403 47.8401 74.498 51.4303 69.1159 56.1564C67.0766 57.9474 65.2493 59.8631 63.6428 61.8842C63.6184 61.9195 63.5919 61.9542 63.5633 61.9866C63.5575 61.9943 63.5525 61.999 63.5468 62.0054C59.7332 66.8339 57.1815 72.2586 56.0616 78.0006H53.2075C53.2075 77.9399 53.2132 77.8811 53.2247 77.8205C53.78 74.8942 54.6893 72.0462 55.9268 69.3082H53.9391C53.1552 69.3082 52.5217 68.7868 52.5217 68.1441C52.5217 67.8227 52.6808 67.5325 52.9359 67.3213C53.1924 67.1105 53.5478 66.9799 53.9391 66.9799H57.0726C58.055 65.1389 59.1908 63.3544 60.4756 61.6376L57.6624 60.0232C57.0218 59.6553 56.8648 58.9302 57.3127 58.4029C57.7605 57.875 58.6426 57.7461 59.2854 58.1139L62.0234 59.6848C63.3368 58.1216 64.7786 56.6225 66.3435 55.1941L63.488 52.8505C62.9348 52.3955 62.9348 51.6587 63.488 51.2037C64.0419 50.7488 64.9398 50.7488 65.493 51.2037L68.2955 53.5055C69.5208 52.4979 70.7956 51.5439 72.1205 50.6452L70.2653 48.4157C69.8225 47.8854 69.9894 47.1603 70.635 46.7984C71.2814 46.4352 72.162 46.5706 72.6042 47.1015L74.3583 49.2079C75.9269 48.2533 77.5556 47.3728 79.236 46.5677L78.0264 44.5466C77.6825 43.971 77.9712 43.2724 78.6742 42.9898C79.3757 42.7056 80.2263 42.9433 80.5716 43.5207L81.7224 45.4471C83.2645 44.7967 84.8424 44.207 86.4582 43.682V40.9299C86.4582 40.286 87.0917 39.7657 87.8756 39.7657C88.6581 39.7657 89.2929 40.286 89.2929 40.9299V42.8345C89.5294 42.7709 89.7652 42.7073 90.0016 42.6467C91.3867 42.2853 92.7926 41.9699 94.2215 41.7015C94.3275 41.6809 94.4329 41.6715 94.5368 41.6715Z" fill="#915040"/>
<path d="M94.5374 57.4133V60.0336C92.9581 60.5692 91.4426 61.1977 90.0023 61.9128C82.7736 65.4971 77.3994 71.229 75.0863 77.9997H72.0115C74.5496 69.8665 81.1169 63.0417 90.0023 59.1054C91.4462 58.4639 92.9502 57.9007 94.5095 57.421C94.5188 57.418 94.5281 57.4151 94.5374 57.4133Z" fill="#915040"/>
<path d="M94.5364 49.1266V51.6362C92.9908 52.0258 91.4767 52.4872 90.0013 53.0146C84.5547 54.9656 79.6362 57.8401 75.5618 61.4756C70.3323 66.1399 66.7459 71.8412 65.1566 77.9998H62.1649C63.7958 71.2262 67.6796 64.954 73.4049 59.8459C78.0461 55.7048 83.7156 52.4884 90.0013 50.4073C91.481 49.9164 92.9944 49.488 94.5364 49.1266Z" fill="#915040"/>
<path d="M48.8044 39.4285V41.7568H0.634949C0.801191 40.4484 2.14833 39.4285 3.78495 39.4285H48.8044Z" fill="#A86552"/>
<path d="M12.2374 73.4986C9.58033 73.4986 7.41846 71.7229 7.41846 69.5406V45.8025C7.41846 45.1592 8.05333 44.6383 8.83582 44.6383C9.61831 44.6383 10.2532 45.1598 10.2532 45.8025V69.5406C10.2532 70.4393 11.1432 71.1703 12.2374 71.1703C13.3315 71.1703 14.2215 70.4393 14.2215 69.5406V49.7605C14.2215 46.936 17.0197 44.6383 20.4578 44.6383C23.8966 44.6383 26.694 46.936 26.694 49.7605V59.0685C26.694 59.7117 26.0599 60.2326 25.2767 60.2326C24.4942 60.2326 23.86 59.7112 23.86 59.0685V49.7605C23.86 48.2202 22.3337 46.9666 20.4585 46.9666C18.5825 46.9666 17.057 48.2202 17.057 49.7605V69.5406C17.057 71.7229 14.8951 73.4986 12.2374 73.4986Z" fill="#915040"/>
<path d="M25.2875 65.117H25.2681C24.4849 65.117 23.8508 64.5956 23.8508 63.9529C23.8508 63.3102 24.4849 62.7887 25.2681 62.7887H25.2875C26.0707 62.7887 26.7048 63.3102 26.7048 63.9529C26.7048 64.5956 26.0707 65.117 25.2875 65.117Z" fill="#915040"/>
<path d="M25.287 69.308C25.2827 69.308 25.2784 69.308 25.2741 69.308L25.2541 69.3074C24.4716 69.3016 23.8431 68.7754 23.8503 68.1327C23.8575 67.4935 24.4909 66.9791 25.267 66.9791H25.2806L25.3006 66.9797C26.0831 66.9856 26.7116 67.5118 26.7044 68.1545C26.6972 68.7936 26.0638 69.308 25.287 69.308Z" fill="#915040"/>
<path d="M25.2875 73.4985H25.2681C24.4849 73.4985 23.8508 72.9776 23.8508 72.3343C23.8508 71.6916 24.4849 71.1708 25.2681 71.1708H25.2875C26.0707 71.1708 26.7048 71.6916 26.7048 72.3343C26.7048 72.9776 26.0707 73.4985 25.2875 73.4985Z" fill="#915040"/>
<path d="M32.081 65.117H32.0609C31.2785 65.117 30.6436 64.5956 30.6436 63.9529C30.6436 63.3102 31.2785 62.7887 32.0609 62.7887H32.081C32.8635 62.7887 33.4984 63.3102 33.4984 63.9529C33.4984 64.5956 32.8635 65.117 32.081 65.117Z" fill="#915040"/>
<path d="M32.0804 69.308C32.0761 69.308 32.0718 69.308 32.0668 69.308L32.0475 69.3074C31.2643 69.3016 30.6358 68.7754 30.6437 68.1327C30.6509 67.4935 31.2836 66.9791 32.0604 66.9791H32.074L32.0933 66.9797C32.8765 66.9856 33.505 67.5118 33.4978 68.1545C33.4899 68.7936 32.8572 69.308 32.0804 69.308Z" fill="#915040"/>
<path d="M32.081 73.4985H32.0609C31.2785 73.4985 30.6436 72.9776 30.6436 72.3343C30.6436 71.6916 31.2785 71.1708 32.0609 71.1708H32.081C32.8635 71.1708 33.4984 71.6916 33.4984 72.3343C33.4984 72.9776 32.8635 73.4985 32.081 73.4985Z" fill="#915040"/>
<path d="M38.8738 65.117H38.8545C38.0713 65.117 37.4371 64.5956 37.4371 63.9529C37.4371 63.3102 38.0713 62.7887 38.8545 62.7887H38.8738C39.6563 62.7887 40.2912 63.3102 40.2912 63.9529C40.2912 64.5956 39.6563 65.117 38.8738 65.117Z" fill="#915040"/>
<path d="M38.874 69.308C38.869 69.308 38.8647 69.308 38.8604 69.308L38.8404 69.3074C38.0579 69.3016 37.4294 68.7754 37.4366 68.1327C37.4438 67.4935 38.0772 66.9791 38.8533 66.9791H38.8669L38.8869 66.9797C39.6694 66.9856 40.2979 67.5118 40.2907 68.1545C40.2835 68.7936 39.6501 69.308 38.874 69.308Z" fill="#915040"/>
<path d="M38.8738 73.4985H38.8545C38.0713 73.4985 37.4371 72.9776 37.4371 72.3343C37.4371 71.6916 38.0713 71.1708 38.8545 71.1708H38.8738C39.6563 71.1708 40.2912 71.6916 40.2912 72.3343C40.2912 72.9776 39.6563 73.4985 38.8738 73.4985Z" fill="#915040"/>
<path d="M37.3091 47.8738H32.9C32.1168 47.8738 31.4827 47.3524 31.4827 46.7097C31.4827 46.0664 32.1168 45.5455 32.9 45.5455H37.3091C38.0923 45.5455 38.7264 46.0664 38.7264 46.7097C38.7264 47.3524 38.0923 47.8738 37.3091 47.8738Z" fill="#915040"/>
<path d="M37.3091 51.9929H32.9C32.1168 51.9929 31.4827 51.472 31.4827 50.8287C31.4827 50.186 32.1168 49.6652 32.9 49.6652H37.3091C38.0923 49.6652 38.7264 50.186 38.7264 50.8287C38.7264 51.472 38.0923 51.9929 37.3091 51.9929Z" fill="#915040"/>
<path d="M37.3091 56.1127H32.9C32.1168 56.1127 31.4827 55.5919 31.4827 54.9486C31.4827 54.3059 32.1168 53.7844 32.9 53.7844H37.3091C38.0923 53.7844 38.7264 54.3059 38.7264 54.9486C38.7264 55.5919 38.0923 56.1127 37.3091 56.1127Z" fill="#915040"/>
<path d="M37.3091 60.2326H32.9C32.1168 60.2326 31.4827 59.7112 31.4827 59.0685C31.4827 58.4258 32.1168 57.9043 32.9 57.9043H37.3091C38.0923 57.9043 38.7264 58.4258 38.7264 59.0685C38.7264 59.7112 38.0923 60.2326 37.3091 60.2326Z" fill="#915040"/>
<path d="M24.096 19.4426C29.5526 19.4426 34.5155 16.9754 37.0493 13.0044C37.265 12.6666 37.265 12.2623 37.0493 11.9239C34.5155 7.9523 29.5519 5.4845 24.096 5.4845C18.6408 5.4845 13.6771 7.9523 11.1426 11.9239C10.9269 12.2623 10.9269 12.6666 11.1426 13.0044C13.6764 16.9754 18.64 19.4426 24.096 19.4426ZM24.096 7.81281C28.2413 7.81281 32.0341 9.57965 34.1666 12.4641C32.0341 15.3475 28.2413 17.1143 24.096 17.1143C19.9506 17.1143 16.1579 15.3475 14.0254 12.4641C16.1586 9.57965 19.9514 7.81281 24.096 7.81281Z" fill="#915040"/>
<path d="M24.096 16.5351C26.3338 16.5351 28.1539 15.0396 28.1539 13.2021C28.1539 11.3641 26.3338 9.86914 24.096 9.86914C21.8589 9.86914 20.0381 11.3641 20.0381 13.2021C20.0381 15.0402 21.8589 16.5351 24.096 16.5351ZM24.096 12.1975C24.771 12.1975 25.3199 12.6483 25.3199 13.2021C25.3199 13.7559 24.771 14.2068 24.096 14.2068C23.4217 14.2068 22.8728 13.7559 22.8728 13.2021C22.8728 12.6483 23.4217 12.1975 24.096 12.1975Z" fill="#915040"/>
<path d="M24.0981 20.652C23.3178 20.652 22.6836 21.1711 22.6807 21.8126L22.6757 23.3428C22.6736 23.9855 23.3063 24.5082 24.0888 24.5099H24.0931C24.8742 24.5099 25.5083 23.9908 25.5105 23.3493L25.5155 21.8197C25.5183 21.1764 24.8856 20.6537 24.1024 20.652C24.101 20.652 24.0995 20.652 24.0981 20.652Z" fill="#915040"/>
<path d="M27.8433 20.1542C27.164 20.4732 26.9283 21.1847 27.3174 21.7427L28.2417 23.0699C28.5033 23.4454 28.9812 23.6561 29.4735 23.6561C29.7121 23.6561 29.9536 23.606 30.1757 23.5019C30.855 23.1829 31.0908 22.4713 30.7017 21.9134L29.7773 20.5862C29.3882 20.0282 28.5226 19.8352 27.8433 20.1542Z" fill="#915040"/>
<path d="M18.4282 20.5589L17.4945 21.882C17.1018 22.4382 17.3326 23.1503 18.009 23.4729C18.2333 23.5794 18.4776 23.63 18.7191 23.63C19.2078 23.63 19.6836 23.4222 19.9466 23.0497L20.8803 21.7272C21.273 21.171 21.0429 20.4583 20.3658 20.1358C19.6886 19.8132 18.8209 20.0027 18.4282 20.5589Z" fill="#915040"/>
<path d="M19.2205 32.0376L25.1157 29.0301H34.1888C36.3299 29.0301 38.0711 27.5999 38.0711 25.8419C38.0711 25.1986 37.4363 24.6777 36.6538 24.6777C35.8713 24.6777 35.2364 25.1992 35.2364 25.8419C35.2364 26.3163 34.7671 26.7018 34.1895 26.7018H14.0032C13.4256 26.7018 12.9563 26.3163 12.9563 25.8419C12.9563 25.1986 12.3214 24.6777 11.5389 24.6777C10.7557 24.6777 10.1216 25.1992 10.1216 25.8419C10.1216 27.5999 11.8628 29.0301 14.0032 29.0301H19.7436L17.725 30.0601C16.3549 30.7593 15.7315 32.0847 16.1737 33.3589C16.6165 34.6325 17.9973 35.4889 19.6103 35.4889C20.3928 35.4889 21.0277 34.9674 21.0277 34.3247C21.0277 33.6814 20.3928 33.1606 19.6103 33.1606C19.1073 33.1606 18.946 32.8527 18.8995 32.7197C18.8536 32.5873 18.7927 32.2559 19.2205 32.0376Z" fill="#915040"/>
<path d="M42.2853 30.0171H42.2659C41.4827 30.0171 40.8485 30.538 40.8485 31.1812C40.8485 31.8239 41.4827 32.3448 42.2659 32.3448H42.2853C43.0677 32.3448 43.7026 31.8239 43.7026 31.1812C43.7026 30.538 43.0677 30.0171 42.2853 30.0171Z" fill="#915040"/>
<path d="M6.16037 12.3488H6.14031C5.35782 12.3488 4.72366 12.8696 4.72366 13.5123C4.72366 14.1556 5.35782 14.6765 6.14031 14.6765H6.16037C6.94286 14.6765 7.57774 14.1556 7.57774 13.5123C7.57774 12.8696 6.94286 12.3488 6.16037 12.3488Z" fill="#915040"/>
<path d="M38.1469 30.984H38.1275C37.345 30.984 36.7101 31.5049 36.7101 32.1482C36.7101 32.7909 37.345 33.3123 38.1275 33.3123H38.1469C38.9301 33.3123 39.5642 32.7909 39.5642 32.1482C39.5642 31.5049 38.9301 30.984 38.1469 30.984Z" fill="#BE7560"/>
<path d="M53.9485 8.92854H53.9285C53.146 8.92854 52.5111 8.40708 52.5111 7.76438C52.5111 7.12168 53.146 6.60022 53.9285 6.60022H53.9485C54.731 6.60022 55.3659 7.12168 55.3659 7.76438C55.3659 8.40708 54.731 8.92854 53.9485 8.92854Z" fill="#CF8671"/>
<path d="M86.2319 33.3123H86.2118C85.4294 33.3123 84.7952 32.7909 84.7952 32.1482C84.7952 31.5049 85.4294 30.984 86.2118 30.984H86.2319C87.0144 30.984 87.6493 31.5049 87.6493 32.1482C87.6493 32.7909 87.0144 33.3123 86.2319 33.3123Z" fill="#CF8671"/>
<path d="M29.0199 45.1974H29.0006C28.2174 45.1974 27.5832 44.6765 27.5832 44.0332C27.5832 43.3905 28.2174 42.8696 29.0006 42.8696H29.0199C29.8024 42.8696 30.4373 43.3905 30.4373 44.0332C30.4373 44.6765 29.8024 45.1974 29.0199 45.1974Z" fill="#CF8671"/>
<path d="M5.24521 73.4985H5.22587C4.44338 73.4985 3.8085 72.9776 3.8085 72.3343C3.8085 71.6916 4.44338 71.1708 5.22587 71.1708H5.24521C6.02842 71.1708 6.66258 71.6916 6.66258 72.3343C6.66329 72.9776 6.02842 73.4985 5.24521 73.4985Z" fill="#915040"/>
<path d="M87.8836 9.38527C87.8836 7.06814 86.32 5.19006 84.3911 5.19006C82.4628 5.19006 80.8992 7.06814 80.8992 9.38527C80.8992 11.7018 82.4628 13.5799 84.3911 13.5799C86.32 13.5799 87.8836 11.7018 87.8836 9.38527Z" fill="#915040"/>
<path d="M87.8836 9.38527C87.8836 11.7024 86.3208 13.5799 84.3911 13.5799C83.8837 13.5799 83.4015 13.4498 82.9665 13.2162C84.1861 12.5623 85.0352 11.0927 85.0352 9.38527C85.0352 7.67729 84.1861 6.20767 82.9665 5.55438C83.4015 5.32013 83.8837 5.19006 84.3911 5.19006C86.3208 5.19006 87.8836 7.06873 87.8836 9.38527Z" fill="#7C3C2F"/>
<path d="M53.1732 53.1753C52.39 53.1753 51.7559 52.6538 51.7559 52.0111V15.9718C51.7559 15.3291 52.39 14.8082 53.1732 14.8082C53.9557 14.8082 54.5899 15.3291 54.5899 15.9718V52.0111C54.5899 52.6544 53.9557 53.1753 53.1732 53.1753Z" fill="#915040"/>
<path d="M65.668 46.3458C64.8855 46.3458 64.2506 45.8244 64.2506 45.1817V15.9718C64.2506 15.3291 64.8855 14.8082 65.668 14.8082C66.4505 14.8082 67.0853 15.3291 67.0853 15.9718V45.1817C67.0853 45.825 66.4505 46.3458 65.668 46.3458Z" fill="#915040"/>
<path d="M78.1627 41.2672C77.3802 41.2672 76.746 40.7458 76.746 40.1031V15.9718C76.746 15.3291 77.3802 14.8082 78.1627 14.8082C78.9459 14.8082 79.58 15.3291 79.58 15.9718V40.1031C79.58 40.7458 78.9459 41.2672 78.1627 41.2672Z" fill="#915040"/>
<path d="M60.2944 23.9143C59.9319 23.9143 59.5686 23.8007 59.292 23.5729L56.842 21.5606C56.5762 21.3423 56.4264 21.0462 56.4264 20.7373V18.3466C56.4264 17.7039 57.0613 17.183 57.8438 17.183H60.6155C61.3987 17.183 62.0328 17.7039 62.0328 18.3466C62.0328 18.9898 61.3987 19.5107 60.6155 19.5107H59.2612V20.2552L61.2969 21.9273C61.8501 22.3817 61.8501 23.1185 61.2969 23.5735C61.0196 23.8007 60.657 23.9143 60.2944 23.9143Z" fill="#7C3C2F"/>
<path d="M60.2736 30.9235C59.9053 30.9235 59.5427 30.8052 59.2712 30.5821L57.1659 28.853C56.6127 28.398 56.6127 27.6611 57.1659 27.2068C57.6238 26.8307 58.3174 26.7654 58.8563 27.0114V26.3004C58.8563 25.6577 59.4904 25.1368 60.2736 25.1368C61.0561 25.1368 61.691 25.6577 61.691 26.3004V29.7587C61.691 30.2296 61.3456 30.6545 60.8161 30.8346C60.6405 30.8941 60.4564 30.9235 60.2736 30.9235Z" fill="#7C3C2F"/>
<path d="M59.2927 37.9483C58.5102 37.9483 57.8753 37.4269 57.8753 36.7842V33.6407C57.8753 32.9974 58.5102 32.4766 59.2927 32.4766C60.0759 32.4766 60.71 32.9974 60.71 33.6407V36.7842C60.71 37.4269 60.0759 37.9483 59.2927 37.9483Z" fill="#7C3C2F"/>
<path d="M69.6848 22.4089C69.4103 22.4089 69.1323 22.343 68.888 22.2064C68.2409 21.8439 68.0739 21.12 68.5153 20.5891L70.6414 18.0277C70.8951 17.7217 71.3121 17.5327 71.7628 17.5204C72.2135 17.5062 72.6449 17.671 72.9244 17.9618L75.3872 20.5232C75.8723 21.0276 75.7677 21.7597 75.1536 22.1582C74.5388 22.5566 73.6481 22.4707 73.1623 21.9663L71.8961 20.6491L70.8578 21.9004C70.5834 22.2306 70.1377 22.4089 69.6848 22.4089Z" fill="#7C3C2F"/>
<path d="M56.9968 45.2804C56.7217 45.2804 56.4436 45.2145 56.1993 45.078C55.5529 44.716 55.386 43.9915 55.8267 43.4606L57.9527 40.8992C58.2071 40.5932 58.6234 40.4048 59.0741 40.3919C59.5249 40.3772 59.9569 40.5426 60.2364 40.8339L62.6985 43.3947C63.1843 43.8997 63.079 44.6312 62.4649 45.0297C61.8501 45.4281 60.9594 45.3422 60.4743 44.8378L59.2081 43.5206L58.1691 44.7719C57.8947 45.1027 57.4497 45.2804 56.9968 45.2804Z" fill="#7C3C2F"/>
<path d="M70.3478 32.0316C69.5654 32.0316 68.9305 31.5108 68.9305 30.8681V25.9901C68.9305 25.5369 69.2515 25.1244 69.7524 24.9343C70.254 24.743 70.8444 24.8095 71.265 25.1026L74.3835 27.2761C74.9804 27.6916 75.0535 28.4267 74.5469 28.9164C74.0403 29.4067 73.146 29.4673 72.5491 29.0512L71.7652 28.5044V30.8681C71.7652 31.5108 71.1311 32.0316 70.3478 32.0316Z" fill="#7C3C2F"/>
<path d="M72.2596 39.0942C71.4764 39.0942 70.8422 38.5734 70.8422 37.9301V35.2121C70.8422 34.5694 71.4764 34.048 72.2596 34.048C73.0421 34.048 73.6762 34.5694 73.6762 35.2121V37.9301C73.677 38.5734 73.0421 39.0942 72.2596 39.0942Z" fill="#7C3C2F"/>
<path d="M74.7697 5.216C74.5261 5.63329 74.0195 5.87518 73.4907 5.87518C73.2865 5.87518 73.0772 5.83987 72.8787 5.76041L70.0913 4.65982L68.9835 6.11767C68.7155 6.46962 68.2526 6.66561 67.7797 6.66561C67.5246 6.66561 67.2637 6.60793 67.0316 6.48845C66.3666 6.14709 66.1638 5.42965 66.5801 4.88347L67.8857 3.16548L66.0986 0.861886C66.0964 0.86012 66.0964 0.858943 66.0943 0.857178H69.4564L70.5392 2.2544L74.1069 3.66222C74.812 3.94178 75.1087 4.63687 74.7697 5.216Z" fill="#915040"/>
<path d="M7.37483 33.706C7.10254 34.0456 6.6511 34.2286 6.19035 34.2286C5.92379 34.2286 5.65149 34.1668 5.41145 34.0368L4.27354 33.42L4.22481 33.4853C4.02848 33.7384 3.7182 33.9185 3.36279 33.9897L0.859112 34.4852C0.704334 34.1774 0.616913 33.839 0.616913 33.4853V32.1381L2.14391 31.8356L3.61215 29.9493C4.03421 29.4078 4.91057 29.2495 5.57052 29.5955C6.22976 29.9416 6.42252 30.662 6.00118 31.2035L5.80126 31.4583L6.97284 32.0928C7.62635 32.4471 7.80549 33.1686 7.37483 33.706Z" fill="#BE7560"/>
<path d="M89.2929 68.8419V72.7564C89.2929 73.2613 88.896 73.7081 88.312 73.8634L84.9613 74.7586V77.9998H82.1266V74.1877L81.2688 72.777C80.9191 72.2025 81.2022 71.5027 81.9037 71.2155C82.6031 70.9283 83.4551 71.1608 83.8048 71.737L84.2662 72.4962L86.4582 71.9106V68.8419C86.4582 68.1992 87.0909 67.6777 87.8756 67.6777C88.6581 67.6777 89.2929 68.1992 89.2929 68.8419Z" fill="#915040"/>
<path d="M94.5368 41.6714V44.0321C93.0005 44.3287 91.4871 44.6842 90.0017 45.0938V42.646C91.3868 42.2847 92.7927 41.9692 94.2216 41.7008C94.3276 41.6808 94.4329 41.6714 94.5368 41.6714Z" fill="#A86552"/>
<path d="M90.0017 50.4073C91.4814 49.9164 92.9948 49.488 94.5368 49.1266V51.6362C92.9912 52.0258 91.4771 52.4872 90.0017 53.0146V50.4073Z" fill="#A86552"/>
<path d="M94.5089 57.4216C94.5182 57.418 94.5275 57.4151 94.5368 57.4133V60.0336C92.9575 60.5692 91.442 61.1977 90.0017 61.9134V59.1054C91.4456 58.4645 92.9497 57.9007 94.5089 57.4216Z" fill="#A86552"/>
</g>
<defs>
<clipPath id="clip0">
<rect width="93.9215" height="77.1429" fill="white" transform="translate(0.615356 0.857178)"/>
</clipPath>
</defs>
</svg>
