<svg width="40" height="40" viewBox="0 0 40 40" fill="none" xmlns="http://www.w3.org/2000/svg">
<mask id="mask0" mask-type="alpha" maskUnits="userSpaceOnUse" x="10" y="10" width="20" height="20">
<path fill-rule="evenodd" clip-rule="evenodd" d="M26.1669 28.753L19.7019 22.288L13.237 28.753C12.5229 29.4671 11.3651 29.4671 10.651 28.753C9.93687 28.0389 9.93687 26.8811 10.651 26.167L17.1159 19.702L10.651 13.2371C9.93687 12.523 9.93687 11.3652 10.651 10.6511C11.3651 9.93696 12.5229 9.93696 13.237 10.6511L19.7019 17.116L26.1669 10.6511C26.881 9.93696 28.0388 9.93696 28.7529 10.6511C29.467 11.3652 29.467 12.523 28.7529 13.2371L22.2879 19.702L28.7529 26.167C29.467 26.8811 29.467 28.0389 28.7529 28.753C28.0388 29.4671 26.881 29.4671 26.1669 28.753Z" fill="black"/>
</mask>
<g mask="url(#mask0)">
<rect width="224" height="160" fill="black"/>
</g>
</svg>
