<svg width="50" height="50" viewBox="0 0 50 50" fill="none" xmlns="http://www.w3.org/2000/svg">
<mask id="mask0" mask-type="alpha" maskUnits="userSpaceOnUse" x="12" y="12" width="25" height="25">
<path fill-rule="evenodd" clip-rule="evenodd" d="M32.7087 35.9411L24.6274 27.8599L16.5462 35.9411C15.6536 36.8338 14.2064 36.8338 13.3137 35.9411C12.4211 35.0485 12.4211 33.6013 13.3137 32.7086L21.395 24.6274L13.3137 16.5462C12.4211 15.6536 12.4211 14.2063 13.3137 13.3137C14.2064 12.4211 15.6536 12.4211 16.5462 13.3137L24.6274 21.3949L32.7087 13.3137C33.6013 12.4211 35.0485 12.4211 35.9411 13.3137C36.8338 14.2063 36.8338 15.6536 35.9411 16.5462L27.8599 24.6274L35.9411 32.7086C36.8338 33.6013 36.8338 35.0485 35.9411 35.9411C35.0485 36.8338 33.6013 36.8338 32.7087 35.9411Z" fill="black"/>
</mask>
<g mask="url(#mask0)">
<rect width="280" height="200" fill="#F0F3F5"/>
</g>
</svg>
