<svg width="94" height="78" viewBox="0 0 94 78" fill="none" xmlns="http://www.w3.org/2000/svg">
<g clip-path="url(#clip0)">
<path d="M29.8236 47.7669C24.6541 48.3033 8.07117 48.8143 8.07117 48.8143V66.5556H84.9957V14.6849H84.9822C73.8425 30.8438 51.255 45.5432 29.8236 47.7669Z" fill="#E2F1FE"/>
<path d="M84.9824 14.6858C83.525 16.7994 81.8682 18.8695 80.0406 20.8771V66.5561H84.9957V14.6858H84.9824Z" fill="#C4E3FF"/>
<path d="M67.788 55.5909C67.0017 55.5909 66.3646 55.0675 66.3646 54.4219V54.2715C66.3646 53.6258 67.0017 53.1024 67.788 53.1024C68.5742 53.1024 69.2113 53.6258 69.2113 54.2715V54.4219C69.2113 55.0675 68.5742 55.5909 67.788 55.5909Z" fill="#C4E3FF"/>
<path d="M69.2113 59.9574V60.1078C69.2113 60.7534 68.5742 61.2769 67.788 61.2769C67.0017 61.2769 66.3646 60.7534 66.3646 60.1078V59.9574C66.3646 59.3118 67.0017 58.7883 67.788 58.7883C68.5742 58.7883 69.2113 59.3118 69.2113 59.9574Z" fill="#C4E3FF"/>
<path d="M69.2113 48.5707V48.7211C69.2113 49.3667 68.5742 49.8901 67.788 49.8901C67.0017 49.8901 66.3646 49.3667 66.3646 48.7211V48.5707C66.3646 47.925 67.0017 47.4016 67.788 47.4016C68.5742 47.4016 69.2113 47.925 69.2113 48.5707Z" fill="#C4E3FF"/>
<path d="M67.788 44.2042C67.0017 44.2042 66.3646 43.6808 66.3646 43.0352V42.8848C66.3646 42.2391 67.0017 41.7157 67.788 41.7157C68.5742 41.7157 69.2113 42.2391 69.2113 42.8848V43.0352C69.2113 43.6808 68.5742 44.2042 67.788 44.2042Z" fill="#C4E3FF"/>
<path d="M67.788 38.4424C67.0017 38.4424 66.3646 37.919 66.3646 37.2733V37.1229C66.3646 36.4773 67.0017 35.9539 67.788 35.9539C68.5742 35.9539 69.2113 36.4773 69.2113 37.1229V37.2733C69.2113 37.919 68.5742 38.4424 67.788 38.4424Z" fill="#C4E3FF"/>
<path d="M47.0665 55.5908C46.2803 55.5908 45.6432 55.0674 45.6432 54.4218V54.2713C45.6432 53.6257 46.2803 53.1023 47.0665 53.1023C47.8528 53.1023 48.4899 53.6257 48.4899 54.2713V54.4218C48.4899 55.0674 47.8528 55.5908 47.0665 55.5908Z" fill="#C4E3FF"/>
<path d="M48.4899 59.9573V60.1077C48.4899 60.7533 47.8528 61.2767 47.0665 61.2767C46.2803 61.2767 45.6432 60.7533 45.6432 60.1077V59.9573C45.6432 59.3116 46.2803 58.7882 47.0665 58.7882C47.8528 58.7882 48.4899 59.3116 48.4899 59.9573Z" fill="#C4E3FF"/>
<path d="M48.4899 48.5706V48.721C48.4899 49.3666 47.8528 49.89 47.0665 49.89C46.2803 49.89 45.6432 49.3666 45.6432 48.721V48.5706C45.6432 47.9249 46.2803 47.4015 47.0665 47.4015C47.8528 47.4015 48.4899 47.9249 48.4899 48.5706Z" fill="#C4E3FF"/>
<path d="M26.3468 55.5908C25.5605 55.5908 24.9235 55.0674 24.9235 54.4218V54.2714C24.9235 53.6257 25.5605 53.1023 26.3468 53.1023C27.133 53.1023 27.7701 53.6257 27.7701 54.2714V54.4218C27.7701 55.0674 27.1329 55.5908 26.3468 55.5908Z" fill="#C4E3FF"/>
<path d="M27.7701 59.9573V60.1077C27.7701 60.7533 27.133 61.2767 26.3468 61.2767C25.5605 61.2767 24.9235 60.7533 24.9235 60.1077V59.9573C24.9235 59.3116 25.5605 58.7882 26.3468 58.7882C27.133 58.7882 27.7701 59.3116 27.7701 59.9573Z" fill="#C4E3FF"/>
<path d="M91.6369 13.7734L89.563 9.15688C89.4761 8.78512 89.1717 8.45482 88.7145 8.29785C88.5551 8.24314 88.3903 8.2154 88.2271 8.20947C88.2156 8.20885 88.204 8.20854 88.1924 8.20823C88.1713 8.20791 88.1503 8.20791 88.1294 8.20838C87.9706 8.20978 87.8092 8.23176 87.6517 8.27962L81.8054 10.0514C81.068 10.275 80.6907 10.9472 80.9628 11.5528C81.2348 12.1585 82.0533 12.4686 82.7908 12.2449L85.4729 11.432C80.7516 19.4223 73.04 27.2054 63.4728 33.5835C52.7196 40.7523 40.7018 45.378 29.6332 46.6087C24.5975 47.1686 9.12378 47.6415 8.96816 47.6462C8.18248 47.67 7.56912 48.2123 7.59816 48.8575C7.62643 49.488 8.25782 49.9835 9.01959 49.9835C9.03724 49.9835 9.05508 49.9833 9.07292 49.9827C9.71436 49.9632 24.8421 49.5008 30.015 48.9256C41.5941 47.6382 54.1133 42.8343 65.2667 35.3988C75.1414 28.8156 83.1153 20.7627 88.0195 12.4754L88.9661 14.5827C89.1783 15.055 89.7224 15.3474 90.3016 15.3474C90.4652 15.3474 90.6316 15.324 90.7941 15.2748C91.5317 15.0514 91.909 14.3791 91.6369 13.7734V13.7734Z" fill="#0ED290"/>
<path d="M26.3464 73.7621C25.5604 73.7621 24.9231 73.2387 24.9231 72.5931V67.707C24.9231 67.0614 25.5604 66.538 26.3464 66.538C27.1325 66.538 27.7698 67.0614 27.7698 67.707V72.5931C27.7698 73.2387 27.1327 73.7621 26.3464 73.7621Z" fill="#C4E3FF"/>
<path d="M47.0669 73.7621C46.2808 73.7621 45.6436 73.2387 45.6436 72.5931V67.707C45.6436 67.0614 46.2808 66.538 47.0669 66.538C47.8529 66.538 48.4902 67.0614 48.4902 67.707V72.5931C48.4902 73.2387 47.8529 73.7621 47.0669 73.7621Z" fill="#C4E3FF"/>
<path d="M67.788 73.7621C67.0019 73.7621 66.3646 73.2387 66.3646 72.5931V67.707C66.3646 67.0614 67.0019 66.538 67.788 66.538C68.574 66.538 69.2113 67.0614 69.2113 67.707V72.5931C69.2113 73.2387 68.574 73.7621 67.788 73.7621Z" fill="#C4E3FF"/>
<path d="M93.5415 67.3309L86.6203 63.18C86.5729 63.1519 86.5179 63.1238 86.459 63.1005C86.44 63.0927 86.423 63.0864 86.404 63.0786C85.7606 62.862 84.9996 63.2439 84.9996 63.8565V64.6982C84.9289 65.5076 84.1933 65.5547 83.8762 65.621H9.0204V11.682C9.0204 11.1627 9.53298 10.7416 10.1655 10.7416H11.1668C12.0018 10.7416 12.4838 9.96382 11.9923 9.41047L6.93854 3.72573C6.53052 3.2659 5.6974 3.2659 5.29127 3.72573L0.237502 9.41047C-0.254021 9.96382 0.228014 10.7416 1.06114 10.7416H2.0643C2.69664 10.7416 3.20941 11.1627 3.20941 11.682V65.621V69.1178V69.1185C3.20941 69.8229 3.90457 70.3938 4.76217 70.3938H83.8762C84.6554 70.4973 84.6869 70.7333 84.8497 70.8537C84.9446 70.9893 84.9996 71.1467 84.9996 71.315V72.1568C84.9996 72.8146 85.8688 73.2042 86.5349 72.8816C86.5653 72.866 86.5938 72.8504 86.6203 72.8348L93.5415 68.6839C94.1014 68.3488 94.1014 67.6645 93.5415 67.3309V67.3309Z" fill="#6C7FD8"/>
<path d="M93.542 68.6839L86.6208 72.8348C86.5943 72.8504 86.5658 72.866 86.5354 72.8816C85.8693 73.2043 85.0001 72.8146 85.0001 72.1568V71.3151C85.0001 71.1467 84.9451 70.9893 84.8502 70.8537C85.262 71.0875 85.6283 71.2465 85.9927 71.22C86.1483 71.2075 86.3039 71.1623 86.4462 71.0766L90.4373 68.6839C90.9971 68.3488 90.9971 67.6645 90.4373 67.3309L86.4462 64.9382C86.3039 64.8525 86.1483 64.8073 85.9927 64.7948C85.6169 64.7683 85.3019 64.8198 84.9147 65.0536C84.9698 64.9445 85.0001 64.8245 85.0001 64.6982V63.8565C85.0001 63.2439 85.7612 62.862 86.4045 63.0787C86.4235 63.0865 86.4406 63.0927 86.4595 63.1005C86.5184 63.1239 86.5734 63.1519 86.6208 63.18L93.542 67.3309C94.1019 67.6645 94.1019 68.3488 93.542 68.6839V68.6839Z" fill="#4F66D0"/>
<path d="M11.9923 9.41047L6.93858 3.72573C6.53056 3.2659 5.69743 3.2659 5.29131 3.72573L4.56238 4.54563L8.88721 9.41047C9.37873 9.96382 8.8967 10.7416 8.06168 10.7416H7.40979C6.58445 10.7416 5.9153 11.2913 5.9153 11.9691L5.82307 64.475C5.82193 65.1073 6.44573 65.6205 7.21565 65.6205H9.02024V11.682C9.02024 11.1627 9.53283 10.7416 10.1652 10.7416H11.1666C12.0018 10.7416 12.4839 9.96382 11.9923 9.41047V9.41047Z" fill="#4F66D0"/>
<path d="M46.5911 18.0996L50.0568 14.3245C50.5301 13.8088 50.4048 13.0759 49.7773 12.6872C49.1493 12.2983 48.2569 12.4013 47.7838 12.9168L44.8026 16.1641L41.7994 12.9138C41.3242 12.3996 40.4315 12.299 39.8052 12.6893C39.1791 13.0797 39.0567 13.8129 39.5319 14.3273L43.0216 18.1041L39.0913 22.3854C38.618 22.901 38.7432 23.6339 39.3708 24.0227C39.769 24.2792 40.7076 24.4141 41.3642 23.7931L44.81 20.0396L48.4361 23.964C48.8878 24.3012 49.4239 24.675 50.4303 24.1885C51.0563 23.7982 51.1788 23.065 50.7036 22.5506L46.5911 18.0996Z" fill="#678D98"/>
<path d="M29.5033 9.71844C29.2989 9.67978 27.4666 9.36585 26.145 10.2302C25.61 10.5801 24.9722 11.2471 24.9722 12.438V14.5152H24.4418C23.6557 14.5152 23.0184 15.0386 23.0184 15.6842C23.0184 16.3299 23.6557 16.8533 24.4418 16.8533H24.9722V24.9695C24.9722 25.6151 25.6095 26.1386 26.3955 26.1386C27.1816 26.1386 27.8189 25.6151 27.8189 24.9695V16.8533H28.9757C29.7618 16.8533 30.3991 16.3299 30.3991 15.6842C30.3991 15.0386 29.7618 14.5152 28.9757 14.5152H27.8189V12.438C27.8189 12.2222 27.8682 12.0927 27.9172 12.0601C28.0688 11.959 28.5565 11.9443 28.8761 11.999C29.639 12.1378 30.3962 11.7461 30.5716 11.1197C30.7477 10.4905 30.2694 9.86324 29.5033 9.71844V9.71844Z" fill="#678D98"/>
<path d="M36.1417 12.0239C35.4119 11.784 34.5837 12.0759 34.2916 12.6753C34.1942 12.8754 31.9323 17.6572 34.2379 24.7604C34.4077 25.2833 34.9831 25.6286 35.6123 25.6286C36.3425 25.6406 37.2109 24.999 36.9885 24.1581C34.9467 17.8676 36.9069 13.6027 36.9365 13.5397C37.2252 12.9412 36.8701 12.2631 36.1417 12.0239V12.0239Z" fill="#678D98"/>
<path d="M55.6069 12.3299C55.3151 11.7304 54.4869 11.4388 53.7568 11.6785C53.0269 11.9182 52.6718 12.5986 52.9637 13.1981C52.984 13.24 54.9748 17.4513 52.91 23.8127C52.7075 24.4365 53.1592 25.0771 53.9187 25.2435C54.5003 25.3717 55.3595 25.1367 55.6606 24.415C57.9662 17.3118 55.7043 12.5299 55.6069 12.3299V12.3299Z" fill="#678D98"/>
</g>
<defs>
<clipPath id="clip0">
<rect width="93.9215" height="77.1429" fill="white" transform="translate(0.0400391)"/>
</clipPath>
</defs>
</svg>
