<svg width="95" height="78" viewBox="0 0 95 78" fill="none" xmlns="http://www.w3.org/2000/svg">
<g clip-path="url(#clip0)">
<path d="M3.5241 32.9154C2.34458 32.9154 1.38831 33.7008 1.38831 34.6696V68.7889C1.38831 72.1263 4.68216 74.8318 8.74555 74.8318H39.5918C40.5169 74.8318 41.3327 75.3301 41.599 76.0578L41.973 76.774C42.2394 77.5017 43.055 78 43.9803 78H51.3219C52.247 78 53.0628 77.5017 53.3291 76.774L53.7032 76.0578C53.9695 75.3301 54.7851 74.8318 55.7104 74.8318H86.5566C90.6198 74.8318 93.9139 72.1264 93.9139 68.7889V34.6696C93.9139 33.7008 92.9576 32.9154 91.7781 32.9154H58.4499L47.546 45.1086L35.3125 32.9154H3.5241Z" fill="#80E29D"/>
<path d="M91.7782 32.9154H87.1535C88.333 32.9154 89.2893 33.7008 89.2893 34.6697V68.7889C89.2893 72.1263 85.9954 74.8318 81.932 74.8318H86.5569C90.6201 74.8318 93.9142 72.1264 93.9142 68.7889V34.6697C93.914 33.7007 92.9577 32.9154 91.7782 32.9154Z" fill="#66B49D"/>
<path d="M84.9258 68.1945H52.4398C49.7951 68.1945 47.6511 66.4335 47.6511 64.2613L42.066 62.4754V37.3463L47.6511 35.398C47.6511 30.8077 52.1817 27.0864 57.7704 27.0864H84.9258C85.6268 27.0864 86.1951 27.5532 86.1951 28.1289V67.1519C86.1951 67.7277 85.6268 68.1945 84.9258 68.1945Z" fill="#FFF6F4"/>
<path d="M84.9261 27.0864H80.6627C81.3636 27.0864 81.9319 27.5532 81.9319 28.1289V67.1519C81.9319 67.7276 81.3636 68.1944 80.6627 68.1944H84.9261C85.627 68.1944 86.1953 67.7276 86.1953 67.1519V28.1289C86.1953 27.5532 85.627 27.0864 84.9261 27.0864Z" fill="#D8E2F1"/>
<path d="M42.8622 68.1945H10.3762C9.67523 68.1945 9.10693 67.7277 9.10693 67.152V28.1289C9.10693 27.5532 9.67523 27.0864 10.3762 27.0864H37.5316C43.1203 27.0864 47.6509 30.8077 47.6509 35.398V64.2611C47.6509 66.4335 45.5069 68.1945 42.8622 68.1945Z" fill="#FFF6F4"/>
<path d="M37.5316 27.0864H33.1526C38.7413 27.0864 43.272 30.8077 43.272 35.398V64.2611C43.272 66.4333 41.1279 68.1944 38.4832 68.1944H42.8622C45.5068 68.1944 47.6509 66.4333 47.6509 64.2611V35.398C47.6509 30.8077 43.1203 27.0864 37.5316 27.0864Z" fill="#D8E2F1"/>
<path d="M47.6511 74.3299C46.88 74.3299 46.255 73.8166 46.255 73.183V72.4936C46.255 71.8602 46.8801 71.3467 47.6511 71.3467C48.4221 71.3467 49.0475 71.86 49.0475 72.4936V73.183C49.0475 73.8166 48.4223 74.3299 47.6511 74.3299Z" fill="#66B49D"/>
<path d="M38.3453 36.336H18.4133C17.6422 36.336 17.0172 35.8226 17.0172 35.1892C17.0172 34.5558 17.6423 34.0425 18.4133 34.0425H38.3453C39.1164 34.0425 39.7414 34.5558 39.7414 35.1892C39.7414 35.8226 39.1164 36.336 38.3453 36.336Z" fill="#D8E2F1"/>
<path d="M38.3453 42.5617H18.4133C17.6422 42.5617 17.0172 42.0484 17.0172 41.415C17.0172 40.7815 17.6423 40.2681 18.4133 40.2681H38.3453C39.1164 40.2681 39.7414 40.7814 39.7414 41.415C39.7414 42.0485 39.1164 42.5617 38.3453 42.5617Z" fill="#D8E2F1"/>
<path d="M38.3453 48.787H18.4133C17.6422 48.787 17.0172 48.2737 17.0172 47.6403C17.0172 47.0069 17.6423 46.4934 18.4133 46.4934H38.3453C39.1164 46.4934 39.7414 47.0067 39.7414 47.6403C39.7414 48.2739 39.1164 48.787 38.3453 48.787Z" fill="#D8E2F1"/>
<path d="M38.3453 55.0129H18.4133C17.6422 55.0129 17.0172 54.4995 17.0172 53.8661C17.0172 53.2327 17.6423 52.7192 18.4133 52.7192H38.3453C39.1164 52.7192 39.7414 53.2326 39.7414 53.8661C39.7414 54.4997 39.1164 55.0129 38.3453 55.0129Z" fill="#D8E2F1"/>
<path d="M38.3453 61.2385H18.4133C17.6422 61.2385 17.0172 60.7251 17.0172 60.0916C17.0172 59.458 17.6423 58.9448 18.4133 58.9448H38.3453C39.1164 58.9448 39.7414 59.4582 39.7414 60.0916C39.7414 60.725 39.1164 61.2385 38.3453 61.2385Z" fill="#D8E2F1"/>
<path d="M76.8892 36.336H56.9573C56.1861 36.336 55.5609 35.8226 55.5609 35.1892C55.5609 34.5558 56.1859 34.0425 56.9573 34.0425H76.8892C77.6604 34.0425 78.2853 34.5558 78.2853 35.1892C78.2853 35.8226 77.6604 36.336 76.8892 36.336Z" fill="#D8E2F1"/>
<path d="M76.8892 42.5617H56.9573C56.1861 42.5617 55.5609 42.0484 55.5609 41.415C55.5609 40.7815 56.1859 40.2681 56.9573 40.2681H76.8892C77.6604 40.2681 78.2853 40.7814 78.2853 41.415C78.2853 42.0485 77.6604 42.5617 76.8892 42.5617Z" fill="#D8E2F1"/>
<path d="M76.8892 48.787H56.9573C56.1861 48.787 55.5609 48.2737 55.5609 47.6403C55.5609 47.0069 56.1859 46.4934 56.9573 46.4934H76.8892C77.6604 46.4934 78.2853 47.0067 78.2853 47.6403C78.2853 48.2739 77.6604 48.787 76.8892 48.787Z" fill="#D8E2F1"/>
<path d="M76.8892 55.0129H56.9573C56.1861 55.0129 55.5609 54.4995 55.5609 53.8661C55.5609 53.2327 56.1859 52.7192 56.9573 52.7192H76.8892C77.6604 52.7192 78.2853 53.2326 78.2853 53.8661C78.2853 54.4997 77.6604 55.0129 76.8892 55.0129Z" fill="#D8E2F1"/>
<path d="M76.8892 61.2385H56.9573C56.1861 61.2385 55.5609 60.7251 55.5609 60.0916C55.5609 59.458 56.1859 58.9448 56.9573 58.9448H76.8892C77.6604 58.9448 78.2853 59.4582 78.2853 60.0916C78.2853 60.725 77.6604 61.2385 76.8892 61.2385Z" fill="#D8E2F1"/>
<path d="M47.6513 30.9382C52.0442 32.7914 58.0854 32.1536 62.6347 31.204C62.7301 31.5297 62.8092 31.8607 62.8734 32.1957C62.1165 28.2356 59.1257 24.8849 54.9917 23.0422C53.2387 22.2608 52.1429 20.758 52.1429 19.1198V12.3914H43.16V19.12C43.16 20.758 42.0641 22.261 40.3111 23.0423C36.6225 24.6865 33.8443 27.5314 32.7505 30.9382C32.7506 30.9379 39.6625 27.5679 47.6513 30.9382Z" fill="#D3EFFB"/>
<path d="M52.1425 12.3914H48.6311V19.12C48.6311 20.7582 49.7269 22.261 51.4799 23.0423C55.4705 24.821 58.3956 28.0049 59.2748 31.7856C60.4478 31.6263 61.5801 31.4239 62.6324 31.2044C61.5941 27.6575 58.7427 24.714 54.9913 23.0423C54.4436 22.7983 53.9598 22.4835 53.5539 22.1163C52.7418 21.382 52.2399 20.4373 52.1553 19.4254C52.1469 19.3241 52.1427 19.2223 52.1427 19.12V12.3914H52.1425Z" fill="#B1E4F9"/>
<path d="M54.3383 12.3914H40.9633C40.227 12.3914 39.6301 11.9011 39.6301 11.2963V8.68674C39.6301 8.08195 40.227 7.59167 40.9633 7.59167H54.3383C55.0747 7.59167 55.6716 8.08195 55.6716 8.68674V11.2965C55.6716 11.9011 55.0747 12.3914 54.3383 12.3914Z" fill="#B1E4F9"/>
<path d="M32.7499 30.9381C32.4182 31.971 32.2395 33.0549 32.2395 34.1735C32.2395 38.0033 34.3104 41.4357 37.5824 43.757C38.0893 44.1165 38.7372 44.3141 39.4069 44.3141H55.8949C56.5647 44.3141 57.2126 44.1165 57.7194 43.757C62.113 40.6402 63.9819 35.8058 62.6344 31.2039C58.085 32.1536 52.0438 32.7914 47.6509 30.9381C39.6619 27.5678 32.75 30.938 32.7499 30.9381Z" fill="#80E29D"/>
<path d="M62.6343 31.2041C61.5815 31.4239 60.4482 31.6263 59.2746 31.7857C60.3213 36.2865 58.355 40.8152 54.2078 43.7571C53.7009 44.1166 53.053 44.3143 52.3833 44.3143H55.8947C56.5644 44.3143 57.2123 44.1166 57.7192 43.7571C62.113 40.6404 63.9819 35.806 62.6343 31.2041Z" fill="#66B49D"/>
<path d="M42.815 5.36883C42.0438 5.36883 41.4188 4.8555 41.4188 4.22208V2.00392C41.4188 1.37051 42.044 0.857178 42.815 0.857178C43.5862 0.857178 44.2112 1.37051 44.2112 2.00392V4.22193C44.2113 4.85535 43.5862 5.36883 42.815 5.36883Z" fill="#D8E2F1"/>
<path d="M47.6511 5.36883C46.88 5.36883 46.255 4.8555 46.255 4.22208V2.00392C46.255 1.37051 46.88 0.857178 47.6511 0.857178C48.4223 0.857178 49.0475 1.37051 49.0475 2.00392V4.22193C49.0475 4.85535 48.4223 5.36883 47.6511 5.36883Z" fill="#D8E2F1"/>
<path d="M52.4863 5.36883C51.7152 5.36883 51.0902 4.8555 51.0902 4.22208V2.00392C51.0902 1.37051 51.7152 0.857178 52.4863 0.857178C53.2575 0.857178 53.8827 1.37051 53.8827 2.00392V4.22193C53.8827 4.85535 53.2575 5.36883 52.4863 5.36883Z" fill="#D8E2F1"/>
<path d="M39.7218 34.8219C39.2247 34.8219 38.7435 34.6034 38.4913 34.2188L38.2733 33.8865C37.9076 33.3289 38.1614 32.6334 38.8405 32.3331C39.5193 32.0327 40.3662 32.2411 40.732 32.7989L40.9499 33.1311C41.3157 33.6887 41.0618 34.3842 40.3827 34.6845C40.1721 34.7778 39.9452 34.8219 39.7218 34.8219Z" fill="#66B49D"/>
<path d="M56.6938 37.107C56.5282 37.107 56.3598 37.0826 56.1958 37.0312C55.4754 36.8052 55.1146 36.1424 55.3899 35.5506L55.5444 35.2184C55.8196 34.6267 56.6265 34.33 57.3471 34.5565C58.0674 34.7823 58.4283 35.4453 58.1529 36.0371L57.9985 36.3693C57.7858 36.826 57.2559 37.107 56.6938 37.107Z" fill="#66B49D"/>
<path d="M48.5528 40.0145C47.831 40.0145 47.2194 39.5581 47.1624 38.9571L47.1308 38.6249C47.0707 37.9934 47.6452 37.4415 48.414 37.3921C49.1835 37.341 49.8547 37.8146 49.9149 38.446L49.9464 38.7782C50.0064 39.4097 49.4319 39.9616 48.6633 40.011C48.6262 40.0134 48.5893 40.0145 48.5528 40.0145Z" fill="#66B49D"/>
<path d="M40.5122 40.8133C40.0151 40.8133 39.5339 40.5948 39.2817 40.21L39.064 39.8778C38.6984 39.32 38.9524 38.6247 39.6313 38.3244C40.3101 38.0238 41.1572 38.2325 41.5226 38.7904L41.7404 39.1226C42.1059 39.6804 41.8519 40.3758 41.173 40.676C40.9624 40.7693 40.7356 40.8133 40.5122 40.8133Z" fill="#66B49D"/>
</g>
<defs>
<clipPath id="clip0">
<rect width="93.9215" height="77.1429" fill="white" transform="translate(0.690552 0.857178)"/>
</clipPath>
</defs>
</svg>
