<svg width="95" height="78" viewBox="0 0 95 78" fill="none" xmlns="http://www.w3.org/2000/svg">
<g clip-path="url(#clip0)">
<path d="M11.8106 15.134C13.1031 14.4691 14.4627 14.2141 14.8881 14.1465H17.2925C17.9027 14.1465 18.3974 13.7402 18.3974 13.239V10.5255C18.3974 10.0222 17.8988 9.61503 17.2859 9.61794L14.2937 9.63246C10.599 10.0371 3.61174 12.5448 3.61174 19.1396L3.62087 37.4129C3.62608 37.5444 3.64525 38.6354 2.90747 39.2813C2.53328 39.6089 1.95355 39.8168 1.17816 39.9024C0.674206 39.9579 0.294983 40.3078 0.294983 40.7254V43.7029C0.294983 44.1206 0.674206 44.4703 1.17816 44.526C1.95355 44.6116 2.53328 44.8195 2.90747 45.1471C3.64228 45.7902 3.62645 46.8748 3.62105 47.0138L3.61174 65.2888C3.61174 71.8836 10.599 74.3913 14.2937 74.7959L17.2859 74.8105C17.8986 74.8134 18.3974 74.4063 18.3974 73.9029V71.1893C18.3974 70.688 17.9027 70.2817 17.2925 70.2817H14.8872C14.4744 70.2163 13.1895 69.9752 11.9353 69.3569C10.049 68.4274 9.13199 67.0966 9.13199 65.2886V47.2812C9.17015 46.728 9.18746 44.8222 7.86791 43.0544C7.48329 42.5391 7.48329 41.8895 7.86791 41.3742C9.18746 39.6064 9.17015 37.7005 9.13199 37.1473V19.1396C9.1318 17.3712 10.0081 16.0611 11.8106 15.134Z" fill="#0ED290"/>
<path d="M11.8102 15.1341C13.1028 14.4693 14.4623 14.2142 14.8877 14.1467H17.2923C17.9025 14.1467 18.3972 13.7404 18.3972 13.2391V10.5255C18.3972 10.0222 17.8986 9.61503 17.2858 9.61794L14.6802 9.63063C15.158 9.69882 15.5222 10.0403 15.5222 10.4528V13.3113C15.5222 13.7726 15.0668 14.1465 14.5053 14.1465H12.0129C11.5875 14.2142 10.228 14.4693 8.93539 15.134C7.13292 16.0609 6.25681 17.3712 6.25681 19.1395V37.1472C6.29479 37.6985 6.31211 39.5939 5.00558 41.3568C4.615 41.8837 4.615 42.5446 5.00558 43.0716C6.31211 44.8345 6.29479 46.7298 6.25681 47.2812V65.2889C6.25681 67.0968 7.17387 68.4275 9.06012 69.3572C10.3145 69.9755 11.5995 70.2166 12.012 70.282H14.5053C15.067 70.282 15.5222 70.6561 15.5222 71.1172V73.9757C15.5222 74.3883 15.158 74.7297 14.6802 74.7979L17.2858 74.8106C17.8984 74.8135 18.3972 74.4065 18.3972 73.9031V71.1894C18.3972 70.6882 17.9025 70.2819 17.2923 70.2819H14.8868C14.4741 70.2164 13.1891 69.9753 11.9349 69.3571C10.0487 68.4275 9.13161 67.0968 9.13161 65.2888V47.2812C9.16978 46.728 9.18709 44.8218 7.86716 43.0539C7.48254 42.5387 7.48254 41.8895 7.86716 41.3745C9.1869 39.6066 9.16959 37.7004 9.13161 37.1472V19.1396C9.13161 17.3712 10.0077 16.0611 11.8102 15.1341Z" fill="#00C285"/>
<path d="M75.3879 15.1337C74.0954 14.4689 72.7358 14.2138 72.3104 14.1463H69.906C69.2958 14.1463 68.8011 13.74 68.8011 13.2387V10.5197C68.8011 10.0185 69.2958 9.61218 69.906 9.61218H72.7233L72.9048 9.63206C76.5995 10.0367 83.5867 12.5444 83.5867 19.1392L83.5776 37.4125C83.5724 37.544 83.5532 38.635 84.291 39.2809C84.6652 39.6084 85.2449 39.8164 86.0203 39.902C86.5243 39.9577 86.9035 40.3075 86.9035 40.7251V43.7026C86.9035 44.1203 86.5243 44.4701 86.0203 44.5257C85.2449 44.6113 84.6652 44.8193 84.291 45.1468C83.5562 45.79 83.572 46.8746 83.5774 47.0135L83.5867 65.2885C83.5867 71.8834 76.5995 74.3911 72.9048 74.7957L69.9126 74.8102C69.2999 74.8131 68.8011 74.4061 68.8011 73.9027V71.189C68.8011 70.6878 69.2958 70.2815 69.906 70.2815H72.3115C72.7242 70.216 74.0092 69.9749 75.2634 69.3567C77.1496 68.4272 78.0667 67.0964 78.0667 65.2884V47.281C78.0285 46.7278 78.0112 44.8219 79.3308 43.0541C79.7154 42.5388 79.7154 41.8892 79.3308 41.3739C78.0112 39.6062 78.0285 37.7003 78.0667 37.1471V19.1394C78.0665 17.371 77.1904 16.0608 75.3879 15.1337Z" fill="#0ED290"/>
<path d="M86.9034 40.7255V43.7028C86.9034 44.1206 86.524 44.4704 86.0198 44.5261C85.2448 44.6116 84.6652 44.8189 84.2914 45.1464C83.5561 45.7902 83.5728 46.8743 83.5784 47.0135L83.5858 65.2892C83.5858 70.3734 79.4324 73.0295 75.8375 74.1625C78.442 72.6625 80.6891 69.6303 80.7114 65.2892L80.7021 47.0135C80.6965 46.8743 80.6816 45.7902 81.417 45.1464C81.7372 44.8651 82.2101 44.6724 82.8281 44.57C83.5319 44.4522 84.0289 43.9293 84.0289 43.339V41.0897C84.0289 40.4995 83.5319 39.9766 82.8281 39.8588C82.2101 39.7548 81.7372 39.5622 81.417 39.2808C80.6779 38.6355 80.6984 37.5438 80.7021 37.4123L80.7114 19.1396C80.6518 15.115 78.6505 12.066 76.2694 10.4084C79.7564 11.6149 83.5858 14.2572 83.5858 19.1396L83.5784 37.4123C83.5728 37.5438 83.5523 38.6355 84.2914 39.2808C84.6654 39.6084 85.245 39.8166 86.0204 39.9025C86.5243 39.9582 86.9034 40.3079 86.9034 40.7255Z" fill="#00C285"/>
<path d="M27.8689 63.4295C26.6462 63.4295 25.5586 62.7646 25.2173 61.7874L21.5191 50.5829H19.1524C18.7354 50.5829 18.3975 50.3052 18.3975 49.9629V46.669C18.3975 46.3265 18.7355 46.049 19.1524 46.049H23.5988C24.8301 46.049 25.9125 46.7189 26.2519 47.6909L29.3201 57.0678C29.3825 57.2583 29.7192 57.2377 29.7466 57.0417L33.9372 26.9425C34.1336 25.8275 35.2972 25.0002 36.6689 25.0002H67.8205C68.3624 25.0002 68.8016 25.361 68.8016 25.8061V28.7283C68.8016 29.1734 68.3624 29.5342 67.8205 29.5342H40.4308C39.8726 29.5342 39.4026 29.877 39.3365 30.3322L34.816 61.4871C34.6296 62.5446 33.5694 63.3518 32.2712 63.4241C32.2083 63.4278 27.9315 63.4295 27.8689 63.4295Z" fill="#0ED290"/>
<path d="M68.8008 25.8064V28.7285C68.8008 29.1735 68.3614 29.5344 67.8197 29.5344H40.4307C39.8722 29.5344 39.4031 29.8769 39.336 30.3326L34.8159 61.4863C34.6297 62.5445 33.5686 63.3518 32.271 63.4237C32.2077 63.4283 27.9314 63.4298 27.8681 63.4298C27.8495 63.4298 27.8327 63.4283 27.8141 63.4283C26.6152 63.4084 25.554 62.7494 25.2171 61.7876L21.5198 50.5824H19.1536C18.7366 50.5824 18.3978 50.3041 18.3978 49.9615V46.6694C18.3978 46.3269 18.7366 46.0486 19.1536 46.0486H23.5993C24.8299 46.0486 25.9115 46.7183 26.2522 47.6908L29.3202 57.0672C29.3817 57.2584 29.7186 57.237 29.7465 57.0412L33.9372 26.9426C34.1327 25.8278 35.2962 25.0006 36.6683 25.0006H67.8197C68.3614 25.0006 68.8008 25.3615 68.8008 25.8064Z" fill="#537983"/>
<path d="M40.4307 29.5343C39.8722 29.5343 39.4031 29.8768 39.3361 30.3325L34.8159 61.4863C34.6298 62.5444 33.5686 63.3518 32.271 63.4237C32.2077 63.4283 27.9314 63.4298 27.8681 63.4298C27.8495 63.4298 27.8328 63.4283 27.8141 63.4283C28.6575 63.4267 29.3705 63.4252 29.3966 63.4237C30.6942 63.3518 31.7553 62.5444 31.9415 61.4863L36.4523 30.4013C36.5231 29.9074 37.035 29.5343 37.642 29.5343H40.4307Z" fill="#3E5959"/>
<path d="M64.7273 25.0002C65.3891 25.0002 65.9257 25.4409 65.9257 25.9845V28.5499C65.9257 29.0935 65.3891 29.5342 64.7273 29.5342H67.8194C68.3613 29.5342 68.8005 29.1734 68.8005 28.7283V25.8061C68.8005 25.361 68.3613 25.0002 67.8194 25.0002H64.7273Z" fill="#3E5959"/>
<path d="M29.7463 57.0415L29.32 60.1043C29.2437 60.3162 29.1551 60.7093 28.3836 60.7893C27.9591 60.7893 27.5849 60.5538 27.4751 60.2174L23.3775 47.6911C23.0368 46.7186 21.9552 46.0488 20.7228 46.0488H23.5991C24.8296 46.0488 25.9113 46.7186 26.252 47.6911L29.32 57.0675C29.3815 57.2586 29.7184 57.2372 29.7463 57.0415Z" fill="#3E5959"/>
<path d="M67.9676 60.67L56.741 48.5198L66.3521 38.0506C66.8164 37.5447 66.6935 36.8258 66.0778 36.4444C65.4618 36.0629 64.5866 36.164 64.1223 36.6696L54.9865 46.6212L45.7889 36.6667C45.323 36.1623 44.4472 36.0635 43.8327 36.4465C43.2185 36.8294 43.0984 37.5487 43.5646 38.0533L53.2395 48.5243L42.4714 60.254C42.0071 60.7598 42.13 61.4788 42.7457 61.8601C42.9975 62.0161 43.2926 62.0913 43.5853 62.0913C44.0084 62.0913 44.4267 61.9338 44.7012 61.6349L54.994 50.423L65.7433 62.0566C66.0179 62.3539 66.4347 62.5102 66.8564 62.5102C67.1505 62.5102 67.4471 62.434 67.6996 62.2768C68.3139 61.8941 68.434 61.1746 67.9676 60.67Z" fill="#678D98"/>
<path d="M89.3734 11.8858C87.2384 11.8858 87.0737 11.8407 86.8912 11.7907C86.4342 11.6656 86.0922 11.3807 85.9529 11.0092C85.7182 10.3824 86.065 10.0094 86.7559 9.26646C87.3021 8.67913 88.3186 7.58583 90.0222 5.58669C90.4913 5.03606 90.8061 4.52871 90.9361 4.11494L90.9661 3.92135C90.9279 3.33357 90.3336 2.86505 89.6085 2.86505C88.9601 2.86505 88.399 3.2432 88.2744 3.76401C88.1259 4.38543 87.3918 4.78988 86.6352 4.66832C85.8786 4.54629 85.3857 3.94352 85.5342 3.32195C85.9153 1.72817 87.6286 0.571411 89.6083 0.571411C91.8976 0.571411 93.7603 2.10127 93.7603 3.98175C93.7603 4.03022 93.7565 4.07885 93.7489 4.12702L93.6957 4.46923C93.6897 4.50746 93.6815 4.54553 93.6709 4.58315C93.4687 5.29907 93.0107 6.07921 92.3096 6.90202C91.3069 8.07866 90.5368 8.94856 89.9572 9.5894C90.8367 9.58696 91.8464 9.57992 92.8028 9.57014H92.8207C93.5838 9.57014 94.2069 10.0741 94.2166 10.7026C94.2262 11.3359 93.6089 11.8558 92.838 11.8638C91.314 11.8791 90.197 11.8858 89.3734 11.8858Z" fill="#678D98"/>
<path d="M26.0056 30.521C25.144 29.7937 23.9574 29.4091 22.5736 29.4091C21.5849 29.4091 20.5935 29.6398 19.7264 30.1177C19.5465 29.6551 19.0193 29.3199 18.3966 29.3199C17.6255 29.3199 17.0003 29.8334 17.0003 30.4668V39.7081C17.0003 40.3415 17.6255 40.8549 18.3966 40.8549C19.1677 40.8549 19.7928 40.3415 19.7928 39.7081V35.2478C19.7928 33.0942 20.8843 31.7027 22.5738 31.7027C23.2034 31.7027 23.6712 31.8393 24.0041 32.1203C24.5998 32.6234 24.8895 33.6386 24.8419 35.0557C24.8415 35.0663 24.8413 35.0768 24.8413 35.0875V39.6642C24.8413 40.2976 25.4664 40.8111 26.2375 40.8111C27.0087 40.8111 27.6338 40.2976 27.6338 39.6642V35.1028C27.7003 33.031 27.1526 31.4896 26.0056 30.521Z" fill="#678D98"/>
</g>
<defs>
<clipPath id="clip0">
<rect width="93.9215" height="77.1429" fill="white" transform="translate(0.294983 0.571411)"/>
</clipPath>
</defs>
</svg>
